<?xml version="1.0" standalone="no"?>
<!DOCTYPE svg PUBLIC "-//W3C//DTD SVG 1.1//EN" "http://www.w3.org/Graphics/SVG/1.1/DTD/svg11.dtd" >
<svg xmlns="http://www.w3.org/2000/svg">
<metadata>Generated by IcoMoon</metadata>
<defs>
<font id="aliyun-console-font" horiz-adv-x="1024">
<font-face units-per-em="1024" ascent="960" descent="-64" />
<missing-glyph horiz-adv-x="1024" />
<glyph unicode="&#x20;" horiz-adv-x="512" d="" />
<glyph unicode="&#xe600;" glyph-name="ace-2" d="M517.568-64.832v0c-119.168 0-234.336 8.192-315.936 22.464-127.936 22.4-158.208 52.448-180.064 178.592-29.088 167.936-28.64 452.864 0.96 622.144 22.336 127.84 52.384 158.144 178.56 180.064 80.064 13.888 189.088 21.568 306.944 21.568 118.912 0 233.856-8.16 315.264-22.432 127.872-22.4 158.144-52.448 180.064-178.592 29.12-167.968 28.736-452.928-0.896-622.272-22.304-127.872-52.384-158.144-178.56-180.096-79.936-13.856-188.736-21.472-306.336-21.472zM508.032 928.48c-116.128 0-223.232-7.52-301.568-21.12-112.864-19.616-132.864-39.808-152.896-154.432-29.12-166.368-29.536-446.336-0.96-611.36 19.552-112.8 39.744-132.832 154.432-152.928 79.904-13.952 193.088-21.952 310.528-21.952v0c115.872 0 222.72 7.456 300.928 20.992 112.896 19.616 132.896 39.84 152.928 154.496 29.12 166.432 29.504 446.432 0.896 611.456-19.616 112.832-39.84 132.864-154.464 152.928-79.712 13.952-192.672 21.952-309.856 21.952zM193.632 396.96l0.032-1.344 0.096-2.88 0.096-1.696 0.096-3.040 0.096-1.28 0.096-3.008 0.096-2.88 0.128-3.040 0.128-2.816 0.16-3.040 0.128-2.784 0.16-3.008 0.16-2.784 0.16-3.008 0.16-2.752 0.192-0.352 0.16-19.424 0.192-3.008 0.192-2.656 0.224-3.008 0.192-2.624 0.224-2.976 0.192-2.592 0.256-3.008 0.224-2.496 0.256-2.976 0.224-2.464 0.288-2.944 0.256-2.432 0.32-2.976 0.256-2.368 0.32-2.976 0.256-2.336 0.352-2.944 0.256-2.272 0.352-2.944 0.256-2.176 0.384-2.944 0.288-2.144 0.416-2.912 0.288-2.048 0.416-2.944 0.288-1.952 0.448-2.912 0.288-1.92 0.48-2.88 0.32-1.856 0.512-3.040 0.288-1.632 0.832-4.544 0.864-4.48c13.472-68.736 30.944-77.856 108.256-89.824 54.72-8.448 120.288-12.704 194.080-12.704 71.936 0 143.552 4.032 196.576 12.16l4.256 0.672 3.36 0.544 3.136 0.544 3.552 0.64 3.392 0.64 2.976 0.576 2.816 0.576 3.424 0.736 2.88 0.64 2.624 0.608 5.696 1.44 2.496 0.672 2.336 0.672 2.688 0.832 2.496 0.8 2.176 0.736 2.080 0.736 2.528 0.96 4 1.696 1.888 0.864c0.576 0.288 1.152 0.576 19.584 13.6l1.504 1.568 1.856 2.144 2.784 3.616 1.28 1.824 1.312 2.048 1.472 2.464 1.184 2.112 1.152 2.24 1.12 2.336 1.344 3.040 1.056 2.56 0.96 2.56 1.152 3.296 0.992 3.008 0.896 2.88 0.864 3.040 1.056 3.872 0.832 3.264 0.8 3.264c0.256 1.088 0.512-2.72 0.96-0.736l0.832 3.808 0.768 3.616 0.736 3.648 0.864 4.544 0.288 1.536 0.576 3.104 0.352 2.016 0.48 2.72 0.352 2.144 0.448 2.656 0.352 2.24 0.416 2.656 0.352 2.368 0.384 2.624 0.352 2.496 0.352 2.592 0.352 2.528 0.352 2.624 0.32 2.592 0.32 2.624 0.32 2.656 0.32 2.624 0.288 2.72 0.288 2.624 0.288 2.784 0.288 2.656 0.288 2.848 0.256 2.656 0.288 2.88 0.256 2.656 0.256 2.976 0.224 2.624 0.256 3.008 0.224 2.656 0.224 3.040 0.192 2.688 0.224 3.072 0.192 19.424 0.192 0.448 0.16 2.688 0.192 3.168 0.16 2.688 0.192 3.168 0.16 2.72 0.16 3.168 0.128 2.72 0.16 3.2 0.128 2.72 0.128 3.232 0.096 1.088 0.128 3.264 0.096 1.472 0.096 3.264 0.064 1.504h-633.312zM387.584 490.432v250.528l-0.16 3.040c-37.312-2.112-42.688-4.608-71.744-9.376-76.96-12.544-96.256-47.872-109.6-119.68-8.416-45.28-13.12-96.224-14.048-157.056l157.888-0.992c20.8 0 37.696 15.136 37.696 33.504zM489.088 459.456h336.736c-0.64 61.472-5.184 107.808-13.568 153.248-13.376 72.32-30.592 105.216-107.072 117.792-54.016 8.864-126.24 13.344-199.136 13.344-18.24 0-36.448-0.288-54.368-0.832-0.256-1.536-0.512-3.136-0.512-4.768v-245.536c0-18.368 17.088-33.248 37.888-33.248z" />
<glyph unicode="&#xe601;" glyph-name="ace" d="M288.928 439.2h-192.32c-35.616 0-64.608 28.864-64.608 64.512v383.776c0 35.68 28.992 64.512 64.608 64.512h192.32c35.584 0 64.448-28.832 64.448-64.512v-383.776c0-35.648-28.928-64.512-64.48-64.512zM928.288-72.352h-831.648c-35.616 0-64.608 28.832-64.608 64.48v255.872c0 35.712 28.992 64.608 64.608 64.608h831.712c35.488 0 64.48-28.864 64.48-64.608v-255.872c-0.032-35.616-29.024-64.48-64.48-64.48zM928.288 439.2h-412.064c-35.616 0-37.6 28.864-37.6 64.512v383.776c0 35.68 28.928 64.512 64.608 64.512h385.024c35.488 0 64.448-28.832 64.448-64.512v-383.776c0-35.648-28.992-64.512-64.448-64.512z" />
<glyph unicode="&#xe602;" glyph-name="add-1" d="M576 512v256h-128v-256h-256v-128h256v-256h128v256h256v128zM512 960c-282.752 0-512-229.216-512-512s229.216-512 512-512c282.784 0 512 229.216 512 512s-229.216 512-512 512zM512 0c-247.424 0-448 200.576-448 448s200.576 448 448 448c247.424 0 448-200.576 448-448s-200.576-448-448-448z" />
<glyph unicode="&#xe603;" glyph-name="add-2" d="M1024 448c0 282.752-229.216 512-512 512s-512-229.216-512-512c0-282.784 229.216-512 512-512s512 229.216 512 512zM448 768h128v-256h256v-128h-256v-256h-128v256h-256v128h256v256z" />
<glyph unicode="&#xe604;" glyph-name="add" d="M448 512v384h128v-384h384v-128h-384v-384h-128v384h-384v128h384z" />
<glyph unicode="&#xe605;" glyph-name="ads-2" d="M518.4-60.8v0c-118.4 0-233.6 9.6-310.4 22.4-128 22.4-156.8 54.4-179.2 179.2-28.8 166.4-28.8 454.4-3.2 614.4 22.4 124.8 54.4 153.6 179.2 176 80 12.8 185.6 22.4 300.8 22.4 118.4 0 233.6-9.6 310.4-22.4 128-22.4 156.8-54.4 179.2-179.2 25.6-166.4 25.6-451.2 0-614.4-22.4-128-54.4-156.8-179.2-179.2-76.8-9.6-182.4-19.2-297.6-19.2zM508.8 924.8c-115.2 0-220.8-6.4-297.6-22.4-115.2-19.2-134.4-38.4-153.6-153.6-25.6-166.4-25.6-444.8 0-608 19.2-112 38.4-131.2 153.6-153.6 76.8-9.6 188.8-19.2 307.2-19.2v0c115.2 0 220.8 6.4 297.6 22.4 112 19.2 131.2 38.4 153.6 153.6 25.6 166.4 25.6 444.8 0 608-19.2 112-41.6 131.2-153.6 150.4-80 12.8-192 22.4-307.2 22.4zM828.8 448l32 70.4c19.2 38.4 0 83.2-38.4 102.4l-96 44.8-44.8 96c-19.2 38.4-64 54.4-102.4 38.4l-70.4-32-70.4 32c-38.4 19.2-83.2 0-102.4-38.4l-44.8-96-96-44.8c-38.4-19.2-54.4-64-38.4-102.4l32-70.4-32-70.4c-19.2-38.4 0-83.2 38.4-102.4l96-44.8 44.8-96c19.2-38.4 64-54.4 102.4-38.4l70.4 32 70.4-32c38.4-19.2 83.2 0 102.4 38.4l44.8 96 96 44.8c38.4 19.2 54.4 64 38.4 102.4l-32 70.4zM512 140.8l-307.2 307.2 307.2 307.2 307.2-307.2-307.2-307.2z" />
<glyph unicode="&#xe606;" glyph-name="ads" d="M934.4 464l44.8 92.8c22.4 51.2 3.2 112-48 137.6l-128 60.8-60.8 128c-22.4 51.2-86.4 73.6-137.6 48l-92.8-44.8-92.8 44.8c-51.2 22.4-112 3.2-137.6-48l-57.6-131.2-128-57.6c-51.2-25.6-73.6-86.4-51.2-137.6l44.8-92.8-44.8-92.8c-22.4-51.2 0-112 51.2-137.6l128-60.8 60.8-128c22.4-51.2 86.4-73.6 137.6-48l92.8 44.8 92.8-44.8c51.2-22.4 112-3.2 137.6 48l60.8 128 128 60.8c51.2 22.4 73.6 86.4 48 137.6l-48 92.8zM512 54.4l-409.6 409.6 409.6 409.6 409.6-409.6-409.6-409.6z" />
<glyph unicode="&#xe607;" glyph-name="amplify" d="M908.8 896h-192c-25.6 0-51.2-12.8-57.6-38.4-12.8-25.6-6.4-51.2 12.8-70.4l51.2-51.2-179.2-179.2c-25.6-25.6-25.6-64 0-89.6s64-25.6 89.6 0l179.2 179.2 51.2-51.2c12.8-12.8 32-19.2 44.8-19.2 6.4 0 19.2 0 25.6 6.4 25.6 6.4 38.4 32 38.4 57.6v192c0 38.4-25.6 64-64 64zM416 428.8l-179.2-179.2-51.2 51.2c-12.8 12.8-25.6 19.2-44.8 19.2-6.4 0-19.2 0-25.6-6.4-25.6-12.8-38.4-32-38.4-57.6v-192c0-38.4 25.6-64 64-64h192c25.6 0 51.2 12.8 57.6 38.4 12.8 25.6 6.4 51.2-12.8 70.4l-51.2 51.2 179.2 179.2c25.6 25.6 25.6 64 0 89.6s-64 25.6-89.6 0z" />
<glyph unicode="&#xe608;" glyph-name="arrow-down" d="M192 608h640l-320-320-320 320z" />
<glyph unicode="&#xe609;" glyph-name="arrow-left" d="M672 768v-640l-320 320 320 320z" />
<glyph unicode="&#xe60a;" glyph-name="arrow-right" d="M352 128v640l320-320-320-320z" />
<glyph unicode="&#xe60b;" glyph-name="arrow-up" d="M512 608l320-320h-640z" />
<glyph unicode="&#xe60c;" glyph-name="backup" d="M320 320h-256c-38.4 0-64-25.6-64-64v-256c0-38.4 25.6-64 64-64h256c38.4 0 64 25.6 64 64v256c0 38.4-25.6 64-64 64zM256 64h-128v128h128v-128zM960 960h-256c-38.4 0-64-25.6-64-64v-256c0-38.4 25.6-64 64-64h256c38.4 0 64 25.6 64 64v256c0 38.4-25.6 64-64 64zM896 704h-128v128h128v-128zM448 896h-128c-108.8 0-192-83.2-192-192h-64c-25.6 0-51.2-12.8-57.6-38.4-12.8-25.6-6.4-51.2 12.8-70.4l128-128c12.8-12.8 25.6-19.2 44.8-19.2s32 6.4 44.8 19.2l128 128c19.2 19.2 25.6 44.8 12.8 70.4-6.4 25.6-32 38.4-57.6 38.4h-64c0 38.4 25.6 64 64 64h128c38.4 0 64 25.6 64 64s-25.6 64-64 64zM876.8 428.8c-12.8 12.8-25.6 19.2-44.8 19.2s-32-6.4-44.8-19.2l-128-128c-19.2-19.2-25.6-44.8-12.8-70.4s32-38.4 57.6-38.4h64c0-38.4-25.6-64-64-64h-128c-38.4 0-64-25.6-64-64s25.6-64 64-64h128c108.8 0 192 83.2 192 192h64c25.6 0 51.2 12.8 57.6 38.4 12.8 25.6 6.4 51.2-12.8 70.4l-128 128z" />
<glyph unicode="&#xe60d;" glyph-name="bell" d="M771.072 261.632c0 0 7.648 21.344-50.304 72.544-57.888 51.2-50.304 183.456-50.304 273.056s-144.768 92.448-144.768 92.448h-27.424c0 0-144.768-2.848-144.768-92.448s7.648-221.856-50.304-273.056c-57.888-51.2-50.304-72.544-50.304-72.544v-21.344c0 0-3.040-19.936 27.424-19.936h463.264c30.464 0 27.424 19.936 27.424 19.936l0.032 21.344zM499.808 197.632c-13.472 0-24.352-10.208-24.352-22.752v-45.536c0-12.544 10.912-22.752 24.352-22.752 13.472 0 24.352 10.208 24.352 22.752v45.536c0 12.544-10.88 22.752-24.352 22.752zM511.488 720.544c20.352 0 36.832 15.392 36.832 34.4s-16.512 34.4-36.832 34.4c-20.352 0-36.832-15.392-36.832-34.4s16.48-34.4 36.832-34.4z" />
<glyph unicode="&#xe60e;" glyph-name="buy" d="M746.464 703.36l-389.728-0.672-3.712 8.288c0 0-3.424 76.64-90.88 76.64 0 0-71.008-2.336-71.008-82.4l84.512-1.248c0 0 48.16-430.752 48.16-442.016 0-30.112 32.768-68.256 46.944-68.256l61.28-0.992c-17.152-5.408-28.896-21.024-28.896-40.448 0-24.224 18.304-43.872 42.528-43.872s43.872 19.616 43.872 43.872c0 18.912-12 34.208-28.768 40.032l224.8 0.928c-15.84-6.112-26.464-22.432-26.464-40.928 0-24.224 18.304-43.872 42.528-43.872s43.872 19.616 43.872 43.872c0 19.68-12.96 35.456-30.816 40.672l46.944 0.768c36.48 0 36.48 83.2 0 83.2h-363.552l-10.336 45.696 391.424-2.208c0 0 52.832 1.024 52.832 50.592l0.256 242.976c0-0.096 1.888 89.376-85.856 89.376zM448 404.576c-23.552 0-42.656 19.104-42.656 42.656s19.104 42.656 42.656 42.656 42.656-19.104 42.656-42.656c0-23.552-19.104-42.656-42.656-42.656zM448 532.576c-23.552 0-42.656 19.104-42.656 42.656s19.104 42.656 42.656 42.656 42.656-19.104 42.656-42.656-19.104-42.656-42.656-42.656zM576 404.576c-23.552 0-42.656 19.104-42.656 42.656s19.104 42.656 42.656 42.656 42.656-19.104 42.656-42.656c0-23.552-19.104-42.656-42.656-42.656zM576 532.576c-23.552 0-42.656 19.104-42.656 42.656s19.104 42.656 42.656 42.656 42.656-19.104 42.656-42.656-19.104-42.656-42.656-42.656zM704 404.576c-23.552 0-42.656 19.104-42.656 42.656s19.104 42.656 42.656 42.656 42.656-19.104 42.656-42.656c0-23.552-19.104-42.656-42.656-42.656zM704 532.576c-23.552 0-42.656 19.104-42.656 42.656s19.104 42.656 42.656 42.656 42.656-19.104 42.656-42.656-19.104-42.656-42.656-42.656z" />
<glyph unicode="&#xe60f;" glyph-name="calendar" d="M789.344 725.344h-85.344v-38.656c0 0-3.328-45.984-64-47.328 0 0-65.312-0.672-64 46.688l-0.672 39.296h-126.688v-40.032c0 0 0.672-45.984-63.328-45.984 0 0-66.016 2.016-66.016 45.312v40.704h-84.64c-23.552 0-42.656-19.104-42.656-42.656v-512c0-23.552 19.104-42.656 42.656-42.656h554.656c23.552 0 42.656 19.104 42.656 42.656v512c0 23.552-19.104 42.656-42.656 42.656zM362.656 213.344h-85.344v85.344h85.344v-85.344zM362.656 341.344h-85.344v85.344h85.344v-85.344zM362.656 469.344h-85.344v85.344h85.344v-85.344zM490.656 213.344h-85.344v85.344h85.344v-85.344zM490.656 341.344h-85.344v85.344h85.344v-85.344zM490.656 469.344h-85.344v85.344h85.344v-85.344zM618.656 213.344h-85.344v85.344h85.344v-85.344zM618.656 341.344h-85.344v85.344h85.344v-85.344zM618.656 469.344h-85.344v85.344h85.344v-85.344zM746.656 213.344h-85.344v85.344h85.344v-85.344zM746.656 341.344h-85.344v85.344h85.344v-85.344zM746.656 469.344h-85.344v85.344h85.344v-85.344zM384 682.656c11.776 0 21.344 9.568 21.344 21.344v42.656c0 11.776-9.568 21.344-21.344 21.344s-21.344-9.568-21.344-21.344v-42.656c0-11.776 9.568-21.344 21.344-21.344zM640 682.656c11.776 0 21.344 9.568 21.344 21.344v42.656c0 11.776-9.568 21.344-21.344 21.344s-21.344-9.568-21.344-21.344v-42.656c0-11.776 9.568-21.344 21.344-21.344z" />
<glyph unicode="&#xe610;" glyph-name="cdn-2" d="M517.568-64.832v0c-119.168 0-234.336 8.192-315.936 22.464-127.936 22.4-158.208 52.448-180.064 178.592-29.088 167.936-28.64 452.864 0.96 622.144 22.336 127.84 52.384 158.144 178.56 180.064 80.064 13.888 189.088 21.568 306.944 21.568 118.912 0 233.856-8.16 315.264-22.432 127.872-22.4 158.144-52.448 180.064-178.592 29.12-167.968 28.736-452.928-0.896-622.272-22.304-127.872-52.384-158.144-178.56-180.096-79.936-13.856-188.736-21.472-306.336-21.472zM508.032 928.48c-116.128 0-223.232-7.52-301.568-21.12-112.864-19.616-132.864-39.808-152.896-154.432-29.12-166.368-29.536-446.336-0.96-611.36 19.552-112.8 39.744-132.832 154.432-152.928 79.904-13.952 193.088-21.952 310.528-21.952v0c115.872 0 222.72 7.456 300.928 20.992 112.896 19.616 132.896 39.84 152.928 154.496 29.12 166.432 29.504 446.432 0.896 611.456-19.616 112.832-39.84 132.864-154.464 152.928-79.712 13.952-192.672 21.952-309.856 21.952zM725.184 728c5.696 0 11.392-0.448 17.056-1.344s11.264-2.208 16.736-4c5.472-1.792 10.784-4 15.904-6.688s10.016-5.824 14.624-9.408c9.216-7.2 16.384-15.552 21.408-24.48 5.056-8.992 7.968-18.592 8.672-28.224 0.736-9.696-0.768-19.424-4.544-28.608-3.776-9.248-9.856-17.92-18.304-25.472-4.224-3.776-8.832-7.104-13.76-9.952s-10.144-5.248-15.552-7.136c-5.408-1.888-11.072-3.328-16.832-4.288s-11.616-1.44-17.536-1.44c-2.784 0-5.568 0.096-8.384 0.32s-5.568 0.544-8.352 0.96c-2.784 0.448-5.536 0.96-8.256 1.6s-5.44 1.376-8.128 2.24l-73.856-65.152c5.28-8.288 9.248-17.088 11.936-26.080 2.72-9.056 4.128-18.368 4.224-27.712 0.096-9.376-1.12-18.784-3.712-27.968-2.592-9.216-6.496-18.24-11.808-26.816l79.52-68.672c3.072 1.216 6.176 2.304 9.376 3.232s6.4 1.696 9.664 2.304c3.264 0.608 6.528 1.088 9.856 1.376s6.624 0.48 9.984 0.48c6.24 0 12.48-0.544 18.656-1.6s12.32-2.656 18.304-4.8c5.984-2.144 11.84-4.8 17.472-8s11.008-6.976 16.064-11.264c10.144-8.64 18.048-18.624 23.616-29.376 5.6-10.784 8.864-22.304 9.728-33.856 0.864-11.616-0.704-23.328-4.768-34.368-4.096-11.104-10.688-21.568-19.872-30.656-4.608-4.544-9.664-8.544-15.008-12s-11.072-6.304-17.024-8.608c-5.952-2.304-12.128-4.032-18.432-5.184s-12.768-1.728-19.232-1.728c-6.464 0-12.96 0.576-19.424 1.728s-12.8 2.88-18.976 5.184c-6.176 2.304-12.192 5.152-17.92 8.608s-11.168 7.424-16.256 12c-8.32 7.456-15.008 15.872-20.032 24.768s-8.384 18.304-10.112 27.808c-1.696 9.472-1.792 19.104-0.256 28.448s4.736 18.4 9.504 26.848l-76.288 67.040c-5.44-3.168-11.072-5.984-16.896-8.384s-11.808-4.384-17.888-6.016c-6.112-1.6-12.32-2.784-18.592-3.616s-12.608-1.216-18.912-1.216c-5.312 0-10.624 0.288-15.904 0.832s-10.528 1.408-15.712 2.56c-5.184 1.12-10.304 2.528-15.296 4.224s-9.92 3.648-14.688 5.92l-81.856-72.192c3.104-8 4.864-16.352 5.376-24.832s-0.352-17.12-2.496-25.568c-2.144-8.48-5.632-16.8-10.432-24.672s-10.944-15.328-18.432-22.016c-5.088-4.544-10.528-8.544-16.256-12s-11.744-6.304-17.92-8.608c-6.208-2.304-12.544-4.032-18.976-5.184s-12.928-1.728-19.424-1.728c-6.464 0-12.928 0.576-19.232 1.728s-12.48 2.88-18.432 5.184c-5.952 2.304-11.648 5.152-17.024 8.608s-10.4 7.424-15.008 12c-9.184 9.088-15.808 19.552-19.872 30.656-4.064 11.040-5.632 22.752-4.768 34.368 0.864 11.552 4.128 23.072 9.728 33.856 5.568 10.72 13.472 20.736 23.616 29.376 5.056 4.288 10.464 8.064 16.064 11.264s11.456 5.888 17.44 8c5.984 2.144 12.128 3.712 18.304 4.8s12.448 1.6 18.656 1.6c4.384 0 8.736-0.256 13.056-0.768s8.576-1.312 12.8-2.368c4.192-1.056 8.32-2.368 12.352-3.936s7.936-3.424 11.744-5.536l74.752 64.768c-7.456 9.696-12.992 20.192-16.64 31.008-3.616 10.784-5.344 21.92-5.216 32.992 0.128 11.040 2.080 22.048 5.856 32.64 3.744 10.528 9.312 20.672 16.672 30.048l-68.896 60.544c-3.488-1.568-7.040-2.944-10.688-4.128s-7.328-2.176-11.072-2.944c-3.744-0.768-7.52-1.376-11.296-1.792s-7.584-0.576-11.392-0.576c-5.888 0-11.776 0.48-17.536 1.44s-11.392 2.4-16.8 4.288c-5.44 1.888-10.624 4.288-15.552 7.136s-9.536 6.176-13.728 9.952c-8.416 7.552-14.528 16.256-18.304 25.472-3.776 9.184-5.28 18.912-4.544 28.608 0.704 9.632 3.616 19.232 8.672 28.224 5.024 8.96 12.192 17.28 21.408 24.48 4.608 3.584 9.504 6.72 14.624 9.408s10.464 4.928 15.904 6.688c5.472 1.792 11.072 3.136 16.736 4s11.36 1.344 17.056 1.344c5.696 0 11.36-0.448 16.896-1.344s11.040-2.208 16.288-4c5.28-1.792 10.368-4 15.232-6.688s9.408-5.824 13.632-9.408c6.528-5.536 11.712-11.744 15.648-18.368s6.592-13.728 7.904-21.024c1.344-7.296 1.376-14.784 0.128-22.176s-3.84-14.784-7.744-21.792l71.84-62.048c4.864 2.368 9.888 4.416 15.008 6.176s10.304 3.232 15.584 4.384c5.28 1.184 10.624 2.048 15.968 2.624s10.784 0.864 16.16 0.864c6.336 0 12.704-0.384 19.008-1.216s12.544-2.016 18.688-3.648c6.144-1.632 12.192-3.648 18.048-6.080s11.616-5.28 17.088-8.544l67.552 58.528c-5.568 7.392-9.568 15.328-11.904 23.52-2.336 8.128-3.072 16.448-2.208 24.608s3.328 16.128 7.36 23.616c4.032 7.456 9.664 14.4 16.864 20.544 4.224 3.584 8.8 6.72 13.632 9.408s9.92 4.928 15.232 6.688c5.28 1.792 10.752 3.136 16.288 4s11.232 1.344 16.928 1.344z" />
<glyph unicode="&#xe611;" glyph-name="cdn" d="M836 872c8.64 0 17.344-0.672 25.952-2.048s17.152-3.424 25.472-6.144c8.32-2.752 16.448-6.176 24.224-10.272s15.264-8.928 22.272-14.464c14.048-11.072 24.928-23.904 32.576-37.632 7.68-13.792 12.128-28.512 13.216-43.328 1.088-14.88-1.184-29.824-6.912-43.936-5.76-14.176-15.008-27.552-27.84-39.136-6.432-5.824-13.472-10.912-20.928-15.296s-15.424-8.032-23.68-10.944c-8.256-2.944-16.832-5.152-25.6-6.624s-17.696-2.208-26.688-2.208c-4.256 0-8.48 0.16-12.736 0.512s-8.48 0.832-12.672 1.472c-4.224 0.672-8.416 1.472-12.576 2.464s-8.288 2.112-12.352 3.424l-112.448-100.064c8.032-12.768 14.112-26.208 18.208-40.064 4.128-13.92 6.272-28.192 6.432-42.528 0.16-14.4-1.728-28.832-5.664-42.976-3.904-14.176-9.92-28-17.984-41.184l121.024-105.472c4.672 1.888 9.408 3.52 14.24 4.928s9.728 2.592 14.688 3.52c4.96 0.96 9.952 1.664 15.008 2.144s10.112 0.704 15.2 0.704c9.472 0 18.976-0.832 28.384-2.464s18.784-4.096 27.904-7.36c9.12-3.264 18.048-7.36 26.56-12.288s16.736-10.688 24.448-17.312c15.456-13.248 27.456-28.608 35.936-45.088 8.512-16.576 13.504-34.24 14.784-52 1.312-17.856-1.056-35.808-7.264-52.8-6.208-17.056-16.256-33.12-30.24-47.072-7.008-7.008-14.688-13.12-22.88-18.4s-16.864-9.696-25.92-13.216c-9.056-3.52-18.464-6.176-28.064-7.936s-19.424-2.688-29.28-2.688c-9.856 0-19.776 0.896-29.568 2.688s-19.456 4.416-28.864 7.936c-9.408 3.52-18.56 7.936-27.264 13.216s-17.024 11.392-24.768 18.4c-12.672 11.488-22.88 24.384-30.496 38.048s-12.736 28.096-15.36 42.72c-2.592 14.56-2.72 29.344-0.352 43.712 2.368 14.336 7.2 28.256 14.496 41.216l-116.128 102.976c-8.288-4.896-16.864-9.184-25.728-12.864s-17.984-6.784-27.264-9.216c-9.312-2.464-18.752-4.288-28.288-5.536s-19.168-1.856-28.8-1.856c-8.096 0-16.16 0.448-24.192 1.312s-16.032 2.176-23.904 3.904c-7.872 1.728-15.648 3.904-23.296 6.496s-15.104 5.632-22.368 9.088l-124.608-110.88c4.736-12.256 7.424-25.12 8.192-38.144 0.736-13.056-0.544-26.304-3.808-39.264-3.296-13.024-8.576-25.792-15.872-37.888s-16.672-23.552-28.064-33.824c-7.744-7.008-16.064-13.12-24.768-18.4s-17.888-9.696-27.296-13.216c-9.44-3.52-19.104-6.176-28.896-7.936s-19.68-2.688-29.536-2.688c-9.888 0-19.68 0.896-29.28 2.688s-19.008 4.416-28.064 7.936c-9.024 3.52-17.728 7.936-25.92 13.216s-15.84 11.392-22.848 18.4c-13.984 13.952-24.032 30.016-30.272 47.072-6.176 16.96-8.576 34.912-7.264 52.8 1.312 17.76 6.272 35.456 14.816 52 8.48 16.448 20.512 31.808 35.968 45.088 7.712 6.592 15.904 12.352 24.448 17.312s17.44 9.024 26.56 12.288c9.12 3.264 18.464 5.728 27.904 7.36s18.944 2.464 28.416 2.464c6.656 0 13.312-0.416 19.872-1.216s13.088-2.016 19.488-3.616c6.4-1.6 12.672-3.616 18.816-6.080s12.096-5.28 17.856-8.544l113.792 99.488c-11.328 14.912-19.776 31.008-25.312 47.616-5.504 16.576-8.16 33.664-7.936 50.688 0.16 16.96 3.168 33.856 8.928 50.112 5.696 16.192 14.176 31.744 25.344 46.144l-104.864 92.96c-5.28-2.4-10.72-4.544-16.256-6.336s-11.136-3.328-16.832-4.544c-5.696-1.216-11.424-2.112-17.184-2.72s-11.552-0.896-17.344-0.896c-8.992 0-17.92 0.736-26.688 2.208s-17.344 3.648-25.6 6.592c-8.256 2.912-16.192 6.592-23.68 10.944s-14.496 9.472-20.928 15.296c-12.832 11.584-22.080 24.96-27.84 39.136-5.728 14.112-8.032 29.056-6.912 43.936 1.088 14.816 5.504 29.536 13.216 43.328 7.68 13.728 18.56 26.56 32.608 37.632 7.008 5.504 14.464 10.304 22.272 14.464 7.808 4.096 15.904 7.552 24.224 10.272s16.832 4.8 25.44 6.144c8.608 1.376 17.312 2.048 25.952 2.048s17.28-0.672 25.728-2.048c8.448-1.344 16.8-3.424 24.832-6.144s15.808-6.176 23.168-10.272c7.36-4.128 14.304-8.928 20.768-14.464 9.888-8.48 17.824-18.048 23.808-28.224 6.016-10.208 10.016-21.088 12.064-32.256s2.112-22.656 0.192-34.048c-1.92-11.392-5.888-22.688-11.776-33.44l109.344-95.296c7.424 3.616 15.040 6.752 22.816 9.472s15.712 4.96 23.744 6.752c8.032 1.792 16.16 3.136 24.32 4.064s16.384 1.344 24.64 1.344c9.664 0 19.328-0.64 28.928-1.856s19.104-3.104 28.448-5.6c9.344-2.496 18.528-5.6 27.488-9.344s17.664-8.128 26.016-13.152l102.816 89.92c-8.48 11.36-14.528 23.584-18.112 36.096-3.552 12.48-4.672 25.28-3.36 37.792s5.056 24.736 11.232 36.256c6.144 11.424 14.72 22.144 25.664 31.552 6.432 5.504 13.408 10.304 20.768 14.464 7.36 4.096 15.136 7.552 23.168 10.272s16.352 4.8 24.832 6.144c8.448 1.376 17.088 2.048 25.76 2.048z" />
<glyph unicode="&#xe612;" glyph-name="cdp" d="M329.92 796.928c-129.664 1.152-329.92-90.048-329.92-342.784 0-226.56 158.144-355.072 329.92-355.072 16.768 0 144.512-4.992 250.304 134.656l-45.44 110.208c0 0-56.256-146.944-204.8-146.944-158.336 0-238.912 135.296-238.912 257.088s85.376 244.864 238.912 244.864c109.312 0 178.304-76.416 204.8-146.944 43.776-116.288 125.12-342.784 125.12-342.784s44.608-110.208 170.688-110.208c110.848 0.064 193.408 89.984 193.408 208.192 0 113.792-70.208 184.064-170.688 208.128-99.776 23.872-159.296 36.736-159.296 36.736l56.896-159.168 45.504 36.736c0 0 48.256 13.888 79.68-12.224 34.56-28.736 56.896-50.368 56.896-110.208 0-59.072-47.232-110.208-102.4-110.208-42.176 0-93.568 33.664-113.792 97.92s-91.008 281.6-91.008 281.6-66.432 218.432-295.872 220.416z" />
<glyph unicode="&#xe613;" glyph-name="clock" d="M352 812.8l-44.8 64c-44.8 76.8-134.4 38.4-134.4 38.4l-89.6-70.4c-89.6-76.8-38.4-140.8-38.4-140.8l76.8-89.6c0-6.4 64 128 230.4 198.4zM544 736v32c0 32 19.2 32 19.2 32h44.8v57.6h-185.6v-64h38.4c25.6 6.4 19.2-25.6 19.2-25.6v-32c-192-6.4-320-166.4-320-358.4 0-102.4 32-192 102.4-256v-6.4c-25.6-51.2-38.4-102.4-38.4-102.4v-38.4h44.8c0 0 19.2 51.2 44.8 102.4h6.4c57.6-38.4 121.6-44.8 198.4-44.8s134.4 6.4 192 51.2l6.4-6.4c32-57.6 38.4-102.4 38.4-102.4h44.8v51.2c0 0 0 38.4-25.6 96v6.4c70.4 64 96 153.6 96 256 0 185.6-134.4 339.2-326.4 352zM518.4 153.6c-128 0-230.4 102.4-230.4 230.4s102.4 230.4 230.4 230.4c128 0 230.4-102.4 230.4-230.4-6.4-128-108.8-230.4-230.4-230.4zM940.8 832l-89.6 83.2c0 0-89.6 38.4-134.4-38.4l-44.8-70.4c166.4-64 204.8-185.6 204.8-185.6l96 70.4c6.4-6.4 57.6 57.6-32 140.8zM576 416h-32v96c0 19.2-12.8 32-32 32-12.8 0-32-19.2-32-32v-128c0-19.2 12.8-32 32-32h64c19.2 0 32 12.8 32 32 0 12.8-12.8 32-32 32z" />
<glyph unicode="&#xe614;" glyph-name="cloudisk" d="M864 960h-704c-44.8 0-83.2-38.4-83.2-76.8v-864c0-44.8 38.4-76.8 76.8-76.8h704c44.8 0 76.8 38.4 76.8 76.8v864c12.8 38.4-25.6 76.8-70.4 76.8zM883.2 12.8c0-6.4-6.4-19.2-19.2-19.2h-704c-6.4 0-19.2 6.4-19.2 19.2v204.8h736v-204.8zM883.2 281.6h-742.4v601.6c0 6.4 6.4 12.8 19.2 12.8h704c6.4 0 19.2-6.4 19.2-19.2v-595.2zM640 672c-6.4 0-6.4 0-12.8 0 0 6.4-25.6 89.6-121.6 89.6-6.4 0-12.8 0-19.2 0-115.2-12.8-102.4-115.2-102.4-115.2s0 0-6.4 0c-19.2 0-96-6.4-108.8-83.2-19.2-89.6 76.8-128 115.2-128h243.2c6.4 0 83.2 0 115.2 70.4 38.4 70.4-6.4 166.4-102.4 166.4zM659.2 38.4c6.4 0 6.4 6.4 0 0l6.4 70.4c0 0 0 6.4-6.4 6.4h-64c0 0-6.4 0-6.4-6.4v-64c0 0 0-6.4 6.4-6.4h64zM768 38.4c0 0 0 6.4 0 0l6.4 70.4c0 0 0 6.4-6.4 6.4h-64c0 0-6.4 0-6.4-6.4v-64c0 0 0-6.4 6.4-6.4h64zM556.8 38.4c6.4 0 6.4 6.4 0 0l6.4 70.4c0 0 0 6.4-6.4 6.4h-64c0 0-6.4 0-6.4-6.4v-64c0 0 0-6.4 6.4-6.4h64z" />
<glyph unicode="&#xe615;" glyph-name="cloudisk2" d="M846.56 962.88h-669.088c-43.616 0-79.104-35.456-79.104-79.072v-860.704c0-43.648 35.488-79.104 79.104-79.104h669.088c43.584 0 79.104 35.52 79.104 79.104v860.672c0 43.616-35.52 79.104-79.104 79.104zM862.56 23.040c0-8.672-7.36-16.064-16.096-16.064h-669.024c-8.672 0-16.064 7.36-16.064 16.064v202.176h701.184v-202.176zM862.56 290.4h-701.184v593.376c0 8.704 7.36 16.032 16.064 16.032h669.088c8.704 0 16.032-7.36 16.032-16.032l-0.032-593.376zM647.776 674.944c-4.64 0-9.472-0.224-14.368-0.672-1.216 4.576-24.416 91.936-119.36 91.968-6.784 0-13.888-0.48-21.376-1.472-112.768-15.040-99.072-111.68-98.368-116.768-0.128 0-2.272 0.16-6.176 0.16-22.016 0-96.352-5.504-109.92-78.304-17.184-92.128 78.496-126.752 113.696-126.752h242.304c3.968 0.032 79.84 0.32 115.84 71.008 34.4 67.392-6.144 160.864-102.24 160.864zM612.8 47.552h49.44c5.888 0 10.656 4.736 10.656 10.688v49.408c0 5.888-4.768 10.656-10.656 10.656h-49.44c-5.92 0-10.688-4.768-10.688-10.656v-49.472c0-5.888 4.768-10.624 10.688-10.624zM715.168 47.552h49.44c5.888 0 10.656 4.736 10.656 10.688v49.408c0 5.888-4.768 10.656-10.656 10.656h-49.44c-5.888 0-10.688-4.768-10.688-10.656v-49.472c0-5.888 4.768-10.624 10.688-10.624zM510.464 47.552h49.408c5.888 0 10.688 4.736 10.688 10.688v49.408c0 5.888-4.8 10.656-10.688 10.656h-49.408c-5.888 0-10.688-4.768-10.688-10.656v-49.472c0-5.888 4.768-10.624 10.688-10.624z" />
<glyph unicode="&#xe616;" glyph-name="db-g" d="M396.864 29.472c-66.976 6.048-133.984 17.824-197.12 41.696-33.024 12.8-65.6 28.896-91.744 53.28-16.288 15.456-30.016 36.032-30.368 59.264 0.064 24.64-0.096 49.248 0.096 73.888 75.872-59.488 171.584-86.080 265.248-100.672-4.48 20.672-7.744 41.664-9.024 62.816-49.792 7.84-99.264 19.552-145.984 38.816-29.664 12.48-58.784 28-82.080 50.624-15.328 15.104-27.968 34.976-28.256 57.216 0 25.312-0.096 50.656 0.064 75.936 76.896-60.224 174.016-86.784 268.928-101.216 5.568 20.096 12.704 39.776 21.6 58.656-60.128 7.328-120.192 19.424-176.64 42.048-30.72 12.576-60.96 28.32-85.152 51.616-15.552 15.2-28.48 35.232-28.736 57.728-0.032 26.016-0.128 52.032 0.064 78.016 40.576-32.544 88.352-54.592 137.376-70.912 73.632-24.224 150.912-35.872 228.16-39.296 5.376-0.128 11.776-1.696 16.032 2.624 27.648 24.928 59.552 44.768 93.184 60.448-107.84-5.792-217.632 1.056-321.44 32.608-36.448 11.488-72.448 26.080-103.84 48.32-24.608 17.632-48.768 42.848-49.568 75.008-0.384 31.968 23.008 57.728 47.168 75.488 30.784 22.464 66.336 37.184 102.368 48.832 70.56 22.176 144.448 32.096 218.176 35.040 80.672 2.816 161.888-2.912 240.8-20.448 61.12-14.56 124.32-33.984 172.352-76.512 16.8-15.616 31.072-36.48 31.392-60.256 0.48-28.736-18.944-52.992-40.192-70.080-34.016-27.36-75.328-43.168-116.256-56.768 30.592-3.328 61.152-8.832 90.176-19.36 3.552-1.216 7.648-3.104 11.264-0.864 19.392 10.272 37.728 22.496 54.976 36.096 0.224-21.856 0.032-43.712 0.096-65.568 21.984-12.8 42.368-28.128 61.504-44.896 0.256 70.016 0.032 140.032 0.128 210.048 3.648 45.408-22.688 86.816-55.968 115.104-28.192 24.608-61.216 43.008-95.36 57.92-61.152 26.336-126.56 41.632-192.384 50.304-87.968 11.296-177.504 10.56-265.248-2.4-66.112-10.016-131.648-26.816-192.192-55.584-32.992-15.936-64.672-35.584-90.688-61.664-23.328-23.552-42.048-54.112-43.584-88.064-0.32-187.232-0.16-374.464-0.096-561.664 0.512-37.152 21.76-70.432 47.808-95.296 44.512-41.856 101.472-67.36 158.912-85.92 75.616-23.776 154.848-34.976 233.952-37.152-19.424 18.304-37.856 37.856-53.152 59.84-1.728 2.304-3.616 5.088-6.752 5.312zM996.448 328.032c-18.24 65.504-58.912 124.384-113.536 164.48-56.8 42.176-128.448 63.488-198.944 59.232-86.336-4.512-169.6-48.064-222.912-116.48-45.056-56.96-68.896-130.368-65.856-203.072 2.528-69.856 29.664-138.496 75.648-190.976 44.48-51.36 106.368-87.008 172.928-99.68 69.92-13.696 144.416-1.696 206.592 33.248 59.008 32.768 106.592 85.76 132.96 148.128 27.488 64.192 32.224 137.888 13.12 205.12zM884.096 43.968h-55.136l-8.384 49.984c-16.032-18.912-30.464-32.256-43.232-40.032-21.984-13.504-48.992-20.288-81.056-20.288-52.8 0-96.032 18.368-129.696 55.104-35.136 36.928-52.704 87.392-52.704 151.456 0 64.768 17.76 116.704 53.248 155.808 35.488 39.072 82.4 58.624 140.768 58.624 50.624 0 91.296-12.896 122.016-38.72 30.72-25.792 48.32-57.984 52.832-96.544h-81.888c-6.304 27.328-21.696 46.432-46.208 57.312-13.696 5.984-28.928 8.96-45.664 8.96-32.064 0-58.4-12.16-79.040-36.48s-30.944-60.864-30.944-109.664c0-49.152 11.168-83.968 33.504-104.384s47.744-30.624 76.192-30.624c27.904 0 50.816 8.064 68.64 24.16s28.832 37.216 32.96 63.296h-92.16v66.816h165.92v-214.784z" />
<glyph unicode="&#xe617;" glyph-name="db-r" d="M756.832 351.872c-7.712 4.256-19.328 6.368-34.752 6.368h-82.976v-97.152h80.896c16.064 0 28.128 1.952 36.16 5.888 14.208 6.88 21.312 20.448 21.312 40.736 0 21.92-6.88 36.64-20.64 44.16zM396.864 29.472c-66.976 6.048-133.984 17.824-197.12 41.696-33.024 12.8-65.6 28.896-91.744 53.28-16.288 15.456-30.016 36-30.336 59.264 0.064 24.64-0.096 49.248 0.096 73.888 75.872-59.488 171.584-86.080 265.248-100.672-4.512 20.672-7.744 41.664-9.024 62.816-49.792 7.84-99.264 19.552-145.984 38.816-29.664 12.48-58.784 28-82.080 50.624-15.328 15.104-27.968 34.976-28.256 57.216 0 25.312-0.096 50.656 0.064 75.936 76.896-60.224 174.016-86.784 268.928-101.216 5.6 20.096 12.704 39.776 21.6 58.656-60.16 7.328-120.192 19.424-176.64 42.048-30.752 12.576-60.992 28.32-85.184 51.616-15.552 15.2-28.448 35.232-28.736 57.728-0.032 26.016-0.128 52.032 0.064 78.016 40.576-32.544 88.352-54.592 137.376-70.912 73.632-24.224 150.912-35.872 228.16-39.296 5.376-0.128 11.776-1.696 16.032 2.624 27.648 24.928 59.552 44.768 93.184 60.48-107.84-5.792-217.632 1.056-321.44 32.608-36.448 11.488-72.48 26.080-103.84 48.32-24.608 17.6-48.768 42.816-49.568 74.976-0.416 31.968 23.008 57.728 47.168 75.488 30.784 22.464 66.336 37.184 102.368 48.832 70.56 22.176 144.448 32.096 218.176 35.040 80.672 2.816 161.888-2.912 240.8-20.448 61.12-14.56 124.32-33.984 172.352-76.48 16.8-15.616 31.072-36.48 31.392-60.256 0.512-28.736-18.944-52.992-40.192-70.080-34.016-27.36-75.328-43.168-116.256-56.768 30.592-3.328 61.152-8.832 90.176-19.36 3.552-1.216 7.648-3.104 11.264-0.864 19.392 10.272 37.728 22.496 54.976 36.096 0.224-21.856 0.032-43.712 0.096-65.568 21.984-12.8 42.368-28.128 61.504-44.896 0.256 70.016 0.032 140.032 0.128 210.048 3.648 45.408-22.688 86.816-55.968 115.104-28.192 24.608-61.216 43.008-95.36 57.92-61.152 26.336-126.528 41.632-192.384 50.304-87.968 11.264-177.504 10.56-265.248-2.4-66.112-10.048-131.648-26.848-192.192-55.616-32.992-15.936-64.672-35.584-90.688-61.664-23.328-23.552-42.048-54.112-43.584-88.064-0.32-187.2-0.16-374.464-0.096-561.664 0.48-37.152 21.76-70.432 47.808-95.296 44.512-41.856 101.504-67.36 158.912-85.92 75.616-23.776 154.848-34.976 233.952-37.152-19.424 18.304-37.888 37.856-53.152 59.84-1.728 2.304-3.616 5.088-6.752 5.312zM996.416 328.032c-18.24 65.504-58.912 124.384-113.536 164.48-56.8 42.176-128.448 63.488-198.944 59.232-86.336-4.512-169.6-48.064-222.912-116.48-45.056-56.96-68.896-130.368-65.856-203.072 2.528-69.856 29.696-138.496 75.648-190.976 44.448-51.36 106.368-87.008 172.928-99.68 69.92-13.696 144.384-1.696 206.592 33.248 59.008 32.768 106.592 85.76 132.96 148.128 27.52 64.192 32.256 137.92 13.12 205.12zM858.752 59.456h-82.976c-2.272 8-3.904 14.464-4.896 19.392-1.952 10.144-3.008 20.512-3.168 31.168l-0.48 33.6c-0.32 23.072-4.256 38.432-11.904 46.112-7.616 7.68-21.888 11.52-42.816 11.52h-73.408v-141.792h-73.472v361.6h172.064c24.576-0.48 43.52-3.616 56.768-9.312s24.48-14.144 33.664-25.28c7.616-9.152 13.632-19.296 18.080-30.432s6.656-23.808 6.656-38.016c0-17.184-4.32-34.048-12.928-50.656-8.64-16.608-22.848-28.32-42.72-35.2 16.608-6.72 28.352-16.224 35.264-28.576s10.368-31.2 10.368-56.544v-24.288c0-16.512 0.672-27.712 1.984-33.6 1.984-9.312 6.624-16.192 13.888-20.608v-9.088z" />
<glyph unicode="&#xe618;" glyph-name="db-sign" d="M342.592 949.696c87.744 12.96 177.28 13.664 265.248 2.4 65.824-8.672 131.2-23.968 192.384-50.304 34.144-14.912 67.168-33.312 95.36-57.92 33.28-28.288 59.616-69.696 55.968-115.104-0.096-70.016 0.16-140.032-0.128-210.048-19.104 16.768-39.52 32.096-61.504 44.896-0.064 21.856 0.128 43.712-0.096 65.568-17.248-13.6-35.584-25.824-54.976-36.096-3.584-2.24-7.68-0.352-11.264 0.864-29.024 10.528-59.584 16.032-90.176 19.36 40.928 13.6 82.24 29.408 116.256 56.768 21.248 17.088 40.704 41.312 40.192 70.080-0.32 23.776-14.592 44.64-31.392 60.256-48.064 42.528-111.232 61.92-172.352 76.512-78.912 17.536-160.128 23.264-240.8 20.448-73.664-2.976-147.552-12.864-218.112-35.072-36.032-11.648-71.584-26.368-102.368-48.832-24.16-17.76-47.584-43.52-47.168-75.488 0.8-32.16 24.96-57.408 49.536-75.008 31.36-22.24 67.392-36.832 103.84-48.32 103.808-31.552 213.632-38.4 321.44-32.608-33.632-15.68-65.536-35.552-93.184-60.48-4.288-4.288-10.656-2.72-16.032-2.624-77.248 3.392-154.528 15.072-228.16 39.296-49.024 16.32-96.8 38.4-137.376 70.912-0.192-26.016-0.096-52.032-0.064-78.016 0.288-22.464 13.184-42.496 28.736-57.728 24.192-23.296 54.432-39.008 85.216-51.616 56.448-22.624 116.48-34.688 176.64-42.048-8.864-18.848-16-38.56-21.6-58.656-94.912 14.432-192.032 40.992-268.928 101.216-0.192-25.312-0.096-50.624-0.064-75.936 0.288-22.208 12.928-42.080 28.256-57.216 23.264-22.656 52.384-38.176 82.080-50.624 46.72-19.264 96.192-30.976 145.984-38.816 1.28-21.152 4.544-42.144 9.024-62.816-93.664 14.592-189.376 41.184-265.248 100.672-0.192-24.608-0.032-49.248-0.096-73.888 0.352-23.232 14.048-43.776 30.368-59.264 26.144-24.416 58.72-40.48 91.744-53.28 63.136-23.872 130.144-35.648 197.12-41.696 3.136-0.224 5.024-3.008 6.752-5.312 15.264-21.984 33.696-41.536 53.152-59.84-79.104 2.176-158.304 13.376-233.952 37.152-57.408 18.56-114.4 44.064-158.912 85.92-26.048 24.864-47.328 58.144-47.808 95.296-0.096 187.232-0.256 374.464 0.064 561.664 1.536 33.952 20.256 64.512 43.584 88.064 26.016 26.080 57.696 45.76 90.72 61.664 60.512 28.8 126.048 45.6 192.096 55.648v0zM683.936 551.744c70.496 4.256 142.144-17.056 198.944-59.232 54.656-40.128 95.296-98.976 113.536-164.48 19.136-67.232 14.4-140.928-13.152-205.152-26.336-62.368-73.952-115.36-132.96-148.128-62.176-34.912-136.672-46.912-206.592-33.248-66.56 12.672-128.448 48.32-172.928 99.68-45.984 52.48-73.12 121.12-75.648 190.976-3.040 72.704 20.8 146.144 65.856 203.072 53.344 68.448 136.608 112 222.944 116.512zM628.032 433.536c-3.424-27.84-6.208-55.744-9.408-83.616-21.888 0.064-43.744-0.096-65.6 0.096-7.232 0.832-14.208-6.176-13.376-13.44 0.128-10.368 0.128-20.736 0-31.104-0.608-7.616 6.848-15.104 14.4-14.496 19.264 0.16 38.528 0.064 57.792 0.096-3.36-34.112-7.68-68.128-11.68-102.176-22.912 0.032-45.792-0.096-68.704 0.096-7.232 0.8-14.208-6.176-13.376-13.44 0.128-10.688 0.128-21.408 0-32.128-0.8-7.264 6.144-14.272 13.376-13.44 20.608 0.192 41.248 0.064 61.856 0.096-2.528-30.976-7.136-61.824-9.92-92.768 2.304-5.216 7.616-10.24 13.792-9.504 14.4 0.16 28.8 0.064 43.232 0.096 4.032 34.048 8.064 68.096 11.456 102.208 36.832-0.032 73.664-0.032 110.528 0-3.456-29.28-6.624-58.592-10.016-87.872-1.344-7.456 5.568-15.392 13.216-14.432 12.704 0.128 25.408 0.128 38.112 0 2.080 0.224 5.536-0.608 5.76 2.432 4.32 33.12 6.592 66.688 11.936 99.584 20.096 0.64 40.256 0.064 60.384 0.192 6.848-0.288 13.088 6.592 12.32 13.408-0.128 10.72-0.128 21.408 0 32.128 0.8 7.296-6.144 14.272-13.376 13.44-17.856-0.16-35.712-0.096-53.568-0.064 4.192 34.016 7.456 68.128 11.52 102.144 21.184-0.032 42.4 0.096 63.584-0.096 7.232-0.8 14.176 6.176 13.376 13.44-0.128 10.688-0.128 21.408 0 32.128 0.8 7.264-6.144 14.272-13.376 13.44-18.912-0.16-37.824-0.064-56.736-0.096 1.952 24.224 5.76 48.256 8.16 72.448-0.768 5.632-5.792 11.84-11.968 11.232-15.040-0.096-30.080-0.064-45.12-0.064-3.168-27.872-6.784-55.712-9.6-83.648-36.608 0.064-73.248-0.032-109.856 0.032 2.464 23.68 5.184 47.328 7.808 71.008 1.056 5.344-4.224 8.672-6.88 12.544-16.704 0.16-33.376 0.096-50.048 0.096v0zM670.4 291.104c36.608-0.064 73.248 0.032 109.856-0.064-3.936-34.016-7.36-68.128-11.456-102.144-36.704 0-73.44-0.064-110.144 0.032 3.968 34.080 8.128 68.096 11.744 102.176v0z" />
<glyph unicode="&#xe619;" glyph-name="db-t" d="M396.864 29.472c-66.976 6.048-133.984 17.824-197.12 41.696-33.024 12.8-65.6 28.896-91.744 53.28-16.288 15.456-30.016 36-30.368 59.264 0.064 24.64-0.096 49.248 0.096 73.888 75.904-59.488 171.584-86.080 265.248-100.672-4.48 20.672-7.744 41.664-9.024 62.816-49.792 7.84-99.264 19.552-145.984 38.816-29.664 12.48-58.784 28-82.080 50.624-15.328 15.104-27.968 34.976-28.256 57.216 0 25.312-0.096 50.656 0.064 75.936 76.928-60.224 174.016-86.784 268.928-101.216 5.568 20.096 12.704 39.776 21.6 58.656-60.128 7.328-120.192 19.424-176.64 42.048-30.72 12.576-60.96 28.32-85.152 51.616-15.552 15.2-28.48 35.232-28.736 57.728-0.032 26.016-0.128 52.032 0.064 78.016 40.576-32.544 88.352-54.592 137.376-70.912 73.632-24.224 150.912-35.872 228.16-39.296 5.376-0.128 11.776-1.696 16.032 2.624 27.648 24.928 59.552 44.768 93.184 60.448-107.84-5.792-217.632 1.056-321.44 32.608-36.448 11.488-72.448 26.080-103.84 48.32-24.608 17.632-48.768 42.848-49.568 75.008-0.384 31.968 23.008 57.728 47.168 75.488 30.784 22.464 66.336 37.184 102.368 48.832 70.56 22.176 144.448 32.096 218.144 35.040 80.672 2.816 161.888-2.912 240.8-20.448 61.12-14.56 124.32-33.984 172.352-76.512 16.8-15.616 31.072-36.48 31.392-60.256 0.48-28.736-18.944-52.992-40.192-70.080-34.016-27.36-75.328-43.168-116.256-56.768 30.592-3.328 61.152-8.832 90.176-19.36 3.552-1.216 7.648-3.104 11.264-0.864 19.392 10.272 37.728 22.496 54.976 36.096 0.224-21.856 0.032-43.712 0.096-65.568 21.984-12.8 42.368-28.128 61.504-44.896 0.256 70.016 0.032 140.032 0.128 210.048 3.648 45.408-22.688 86.816-55.968 115.104-28.192 24.608-61.216 43.008-95.36 57.92-61.152 26.336-126.56 41.632-192.384 50.304-87.968 11.296-177.504 10.56-265.248-2.4-66.080-10.016-131.616-26.816-192.16-55.584-32.992-15.936-64.672-35.584-90.688-61.664-23.328-23.552-42.048-54.112-43.584-88.096-0.32-187.2-0.16-374.464-0.096-561.664 0.48-37.152 21.76-70.432 47.808-95.296 44.512-41.856 101.504-67.36 158.912-85.92 75.616-23.776 154.848-34.976 233.952-37.152-19.424 18.304-37.856 37.856-53.152 59.84-1.728 2.336-3.616 5.12-6.752 5.344zM996.448 328.032c-18.24 65.504-58.912 124.384-113.536 164.48-56.8 42.176-128.448 63.488-198.944 59.232-86.336-4.512-169.6-48.064-222.912-116.48-45.056-56.96-68.896-130.368-65.856-203.072 2.528-69.856 29.664-138.496 75.648-190.976 44.48-51.36 106.368-87.008 172.928-99.68 69.92-13.696 144.416-1.696 206.592 33.248 59.008 32.768 106.592 85.76 132.96 148.128 27.488 64.192 32.224 137.92 13.12 205.12zM877.664 355.2h-120.704v-333.728h-84.864v333.728h-121.248v71.808h326.816v-71.808z" />
<glyph unicode="&#xe61a;" glyph-name="db" d="M512-64c-211.2 0-384 83.2-384 192v0 108.8c0-108.8 172.8-172.8 384-172.8s384 64 384 172.8v-108.8c0-108.8-172.8-192-384-192zM512 128c-211.2 0-384 83.2-384 192v108.8c0-108.8 172.8-172.8 384-172.8s384 64 384 172.8v-108.8c0-108.8-172.8-192-384-192zM512 320c-211.2 0-384 83.2-384 192v108.8c0-108.8 172.8-172.8 384-172.8s384 64 384 172.8v-108.8c0-108.8-172.8-192-384-192zM512 512c-211.2 0-384 83.2-384 192v64c0 108.8 172.8 192 384 192s384-83.2 384-192v-64c0-108.8-172.8-192-384-192z" />
<glyph unicode="&#xe61b;" glyph-name="ddos-2" d="M998.080 756.384c-21.696 124.928-51.68 154.688-178.304 176.832-80.608 14.112-194.432 22.208-312.192 22.208-116.736 0-224.672-7.616-303.968-21.376-124.928-21.696-154.688-51.712-176.8-178.304-29.312-167.648-29.76-449.76-0.96-616.064 21.632-124.928 51.616-154.656 178.304-176.832 80.832-14.144 194.848-22.24 312.864-22.24 0 0 0 0 0 0 116.448 0 224.16 7.552 303.328 21.28 124.96 21.728 154.72 51.712 176.8 178.336 29.344 167.68 29.728 449.856 0.896 616.192zM966.496 145.568c-19.84-113.536-39.648-133.536-151.424-152.992-77.44-13.408-183.264-20.768-298.016-20.768v0c-116.288 0-228.352 7.936-307.488 21.76-113.568 19.904-133.6 39.744-152.928 151.424-28.32 163.392-27.872 440.64 0.96 605.408 19.84 113.504 39.648 133.504 151.392 152.928 77.6 13.472 183.648 20.928 298.624 20.928 116.032 0 227.872-7.936 306.816-21.728 113.504-19.872 133.504-39.68 152.96-151.424 28.352-163.424 27.936-440.672-0.896-605.504zM510.4 645.088l0.416 0.256 0.32-0.224 0.416 0.64 139.072 80.288-32.384 56.096-98.176-56.672-90.624 59.872-39.712-59.84 120.192-79.552 0.48-0.864zM332.896 528.96h0.992v0.48l0.352 0.16-0.352 0.672v160.608h-64.768v-113.376l-97.152-48.576 31.968-64.32 128.992 64.32zM690.144 528.96h0.992l128.992-64.32 31.968 64.32-97.152 48.576v113.376h-64.768v-160.608l-0.352-0.672 0.352-0.16v-0.48zM690.112 448.032c0 98.4-79.744 178.144-178.144 178.144s-178.144-79.744-178.144-178.144c0-98.368 79.744-178.144 178.144-178.144s178.144 79.744 178.144 178.144zM414.72 448.032c0 53.728 43.552 97.248 97.248 97.248s97.248-43.552 97.248-97.248c0-53.728-43.552-97.248-97.248-97.248s-97.248 43.552-97.248 97.248zM333.856 367.040h-0.992l-128.96 64.32-31.968-64.32 97.152-48.576v-113.376h64.768v160.576l0.352 0.672-0.352 0.16v0.48zM511.168 250.88l-0.32-0.224-0.416 0.256-0.48-0.864-120.192-79.552 39.712-59.84 90.624 59.872 98.176-56.672 32.384 56.096-139.072 80.288-0.416 0.64zM691.136 367.040h-0.992v-0.48l-0.352-0.16 0.352-0.672v-160.608h64.768v113.376l97.152 48.576-31.968 64.32-128.96-64.32z" />
<glyph unicode="&#xe61c;" glyph-name="ddos" d="M250.688 575.776h1.44v0.736l0.512 0.256-0.512 0.992v236.96h-95.584v-167.264l-143.36-71.648 47.168-94.88 190.304 94.88zM777.792 575.776h1.44l190.304-94.88 47.168 94.88-143.36 71.648v167.264h-95.584v-236.96l-0.512-0.992 0.512-0.256v-0.736zM512.608 747.072l0.64 0.352 0.48-0.32 0.608 0.928 205.216 118.464-47.776 82.784-144.864-83.648-133.728 88.32-58.592-88.288 177.312-117.344 0.736-1.28zM252.16 336.832h-1.472l-190.304 94.88-47.168-94.88 143.36-71.648v-167.264h95.584v236.928l0.512 1.024-0.512 0.256v0.736zM777.76 456.352c0 145.152-117.664 262.816-262.816 262.816s-262.816-117.664-262.816-262.816c0-145.152 117.664-262.816 262.816-262.816s262.816 117.664 262.816 262.816zM371.424 456.352c0 79.264 64.256 143.52 143.488 143.52s143.488-64.256 143.488-143.52c0-79.264-64.256-143.488-143.488-143.488s-143.52 64.256-143.52 143.488zM779.264 336.832h-1.472v-0.736l-0.512-0.256 0.512-0.992v-236.96h95.584v167.264l143.36 71.648-47.168 94.88-190.304-94.88zM513.728 165.472l-0.48-0.32-0.64 0.352-0.736-1.248-177.312-117.376 58.592-88.288 133.728 88.32 144.864-83.648 47.776 82.784-205.216 118.464-0.608 0.928z" />
<glyph unicode="&#xe61d;" glyph-name="detail-2" d="M743.744 77.216h-463.488c-78.784 0-139.040 60.256-139.040 139.040v463.488c0 60.256 37.088 111.232 92.704 129.792v-60.256c0-37.088 32.448-69.536 69.536-69.536s69.536 32.448 69.536 69.536v69.536h278.080v-69.536c0-37.088 32.448-69.536 69.536-69.536s69.536 32.448 69.536 69.536v60.256c55.616-18.528 92.704-69.536 92.704-129.792v-463.488c0-78.784-60.256-139.040-139.040-139.040zM790.080 587.040h-556.192v-370.784c0-27.808 18.528-46.336 46.336-46.336h463.488c27.808 0 46.336 18.528 46.336 46.336v370.784zM280.256 355.296h463.488v-46.336h-463.488v46.336zM280.256 448h463.488v-46.336h-463.488v46.336zM280.256 540.704h463.488v-46.336h-463.488v46.336zM512 216.256h-231.744v46.336h231.744v-46.336zM720.576 726.080c-13.888 0-23.168 9.28-23.168 23.168v69.536h46.336v-69.536c0-13.888-9.28-23.168-23.168-23.168zM303.424 726.080c-13.888 0-23.168 9.28-23.168 23.168v69.536h46.336v-69.536c0-13.888-9.28-23.168-23.168-23.168z" />
<glyph unicode="&#xe61e;" glyph-name="detail" d="M618.24 182.24v72.032l-212.896 0.416v-72.864c0 0-69.088-54.24-26.656-54.24h262.656c58.656-0.032-23.072 54.656-23.072 54.656zM768 768.416h-512c-35.328 0-64-28.672-64-64v-341.344c0-35.328 28.672-64 64-64h512c35.328 0 64 28.672 64 64v341.344c0 35.328-28.672 64-64 64zM512 330.112c-18.048 0-32.672 14.624-32.672 32.672s14.624 32.672 32.672 32.672c18.048 0 32.672-14.624 32.672-32.672s-14.624-32.672-32.672-32.672zM789.344 467.744c0-23.552-19.104-42.656-42.656-42.656h-469.344c-23.552 0-42.656 19.104-42.656 42.656v215.392c0 23.552 19.104 42.656 42.656 42.656h469.344c23.552 0 42.656-19.104 42.656-42.656v-215.392z" />
<glyph unicode="&#xe61f;" glyph-name="disk-image" d="M342.4 924.8h-307.2v-60.8h307.2c9.6 0 16-6.4 16-16v-569.6h-323.2v-60.8h323.2v-169.6c0-9.6-6.4-16-16-16h-307.2v-60.8h307.2c41.6 0 73.6 32 73.6 73.6v800c3.2 48-32 80-73.6 80zM227.2 515.2c32 64-6.4 150.4-96 150.4-3.2 0-9.6 0-12.8 0 0 3.2 6.4 83.2-80 86.4v-304h80c3.2 0 73.6 0 108.8 67.2zM134.4 131.2c0 12.8-9.6 22.4-22.4 22.4s-22.4-9.6-22.4-22.4 9.6-22.4 22.4-22.4c12.8 0 22.4 9.6 22.4 22.4zM198.4 131.2c0 12.8-9.6 22.4-22.4 22.4s-22.4-9.6-22.4-22.4 9.6-22.4 22.4-22.4c12.8 0 22.4 9.6 22.4 22.4zM265.6 131.2c0 12.8-9.6 22.4-22.4 22.4s-22.4-9.6-22.4-22.4 9.6-22.4 22.4-22.4 22.4 9.6 22.4 22.4zM688 924.8c-41.6 0-73.6-32-73.6-73.6v-800c0-41.6 32-73.6 73.6-73.6h300.8v60.8h-300.8c-9.6 0-16 6.4-16 16v169.6h316.8v60.8h-316.8v566.4c0 9.6 6.4 16 16 16h300.8v57.6h-300.8zM915.2 665.6c-3.2 0-9.6 0-12.8 0-89.6 0-128-89.6-96-150.4 35.2-67.2 105.6-67.2 108.8-67.2h73.6v304c-86.4-3.2-73.6-83.2-73.6-86.4zM896 131.2c0-12.8 9.6-22.4 22.4-22.4s22.4 9.6 22.4 22.4-9.6 22.4-22.4 22.4c-12.8 0-22.4-9.6-22.4-22.4zM832 131.2c0-12.8 9.6-22.4 22.4-22.4s22.4 9.6 22.4 22.4-9.6 22.4-22.4 22.4-22.4-9.6-22.4-22.4zM768 131.2c0-12.8 9.6-22.4 22.4-22.4s22.4 9.6 22.4 22.4-9.6 22.4-22.4 22.4c-12.8 0-22.4-9.6-22.4-22.4zM480-57.6h54.4v1014.4h-54.4v-1014.4z" />
<glyph unicode="&#xe620;" glyph-name="down" d="M320 608h-128l320-320 320 320h-128l-192-192-192 192z" />
<glyph unicode="&#xe621;" glyph-name="dpc-2" d="M982.4 745.6c-22.4 121.6-48 150.4-172.8 172.8-76.8 12.8-188.8 22.4-300.8 22.4s-217.6-6.4-294.4-22.4c-124.8-19.2-150.4-48-172.8-172.8-28.8-160-28.8-435.2 0-595.2 22.4-121.6 48-150.4 172.8-172.8 76.8-12.8 188.8-22.4 304-22.4 112 0 217.6 6.4 294.4 22.4 121.6 22.4 150.4 51.2 169.6 172.8 28.8 160 28.8 435.2 0 595.2zM950.4 156.8c-19.2-108.8-38.4-131.2-147.2-150.4-73.6-12.8-176-19.2-288-19.2s-220.8 6.4-297.6 22.4c-108.8 19.2-131.2 38.4-150.4 147.2-28.8 160-28.8 428.8 0 588.8 19.2 108.8 41.6 128 147.2 147.2 73.6 12.8 176 19.2 288 19.2s220.8-6.4 297.6-22.4c108.8-19.2 131.2-38.4 150.4-147.2 28.8-156.8 28.8-428.8 0-585.6zM902.4 435.2c0 16-12.8 28.8-28.8 28.8 0 0-3.2 0-3.2 0l-48 57.6c0 3.2 0 6.4 0 6.4 0 16-12.8 25.6-25.6 28.8l-54.4 92.8c3.2 3.2 6.4 9.6 6.4 16 0 16-12.8 28.8-28.8 28.8-6.4 0-16-3.2-19.2-9.6l-96 38.4c0 0 0 0 0 0 0 16-12.8 28.8-28.8 28.8s-28.8-12.8-28.8-28.8c0 0 0-3.2 0-3.2l-86.4-48c-3.2 3.2-9.6 3.2-12.8 3.2-12.8 0-22.4-6.4-25.6-16l-112-19.2c-3.2 6.4-12.8 9.6-22.4 9.6-16 0-28.8-12.8-28.8-28.8 0-9.6 3.2-16 9.6-19.2l-22.4-57.6c-16 0-28.8-12.8-28.8-28.8 0-3.2 0-3.2 0-3.2l-57.6-35.2c-3.2 0-6.4 3.2-12.8 3.2-16 0-28.8-12.8-28.8-28.8 0-12.8 6.4-19.2 16-25.6v-102.4c-9.6-3.2-16-12.8-16-25.6 0-16 12.8-28.8 28.8-28.8 3.2 0 9.6 0 12.8 3.2l64-54.4c0-3.2 0-3.2 0-6.4 0-16 12.8-28.8 28.8-28.8 12.8 0 19.2 6.4 25.6 16h182.4c3.2-9.6 12.8-16 25.6-16s19.2 6.4 25.6 16h198.4c3.2-9.6 12.8-16 25.6-16 16 0 28.8 12.8 28.8 28.8 0 0 0 0 0 0l73.6 35.2c3.2-3.2 9.6-6.4 16-6.4 16 0 28.8 12.8 28.8 28.8 0 9.6-6.4 19.2-12.8 22.4l19.2 118.4c6.4 6.4 12.8 16 12.8 25.6zM822.4 272l-73.6-35.2c-3.2 3.2-6.4 3.2-6.4 3.2l-32 156.8c3.2 3.2 6.4 6.4 9.6 9.6l137.6 12.8c3.2-3.2 3.2-3.2 6.4-6.4l-19.2-115.2c-12.8-6.4-22.4-16-22.4-25.6zM176 451.2c0 0 0 3.2 0 3.2l60.8 38.4c3.2-3.2 6.4-3.2 12.8-3.2 3.2 0 3.2 0 6.4 0l64-92.8c-3.2-3.2-3.2-6.4-3.2-12.8l-153.6-64c0 0 0 0-3.2 0v105.6c9.6 6.4 16 16 16 25.6zM313.6 614.4l108.8 19.2c3.2-6.4 9.6-9.6 16-12.8v-86.4c-9.6-3.2-12.8-12.8-12.8-22.4 0-6.4 3.2-9.6 3.2-12.8l-73.6-86.4c-3.2 0-6.4 3.2-12.8 3.2 0 0-3.2 0-3.2 0l-64 92.8c3.2 3.2 3.2 6.4 3.2 12.8s-3.2 12.8-6.4 16l22.4 60.8c9.6 0 16 6.4 19.2 16zM473.6 646.4c0 3.2 0 3.2 0 0l89.6 54.4c0 0 3.2 0 3.2-3.2l25.6-124.8c-6.4-3.2-9.6-9.6-12.8-19.2l-108.8-25.6c-3.2 3.2-6.4 6.4-9.6 6.4v86.4c6.4 9.6 12.8 16 12.8 25.6zM720 640c0 0 0 0 0 0l54.4-92.8-140.8 12.8c-3.2 6.4-9.6 12.8-16 16l-25.6 124.8c0 0 0 0 3.2 0l99.2-38.4c0-12.8 12.8-22.4 25.6-22.4zM848 441.6l-128-12.8c-3.2 9.6-12.8 16-25.6 16-3.2 0-3.2 0-6.4 0l-54.4 89.6 134.4-12.8c3.2-12.8 12.8-22.4 25.6-22.4 3.2 0 6.4 0 9.6 3.2l44.8-54.4c3.2 0 3.2-3.2 0-6.4zM560 348.8c0 0 0 3.2 0 3.2s0 0 0 3.2l118.4 44.8c3.2 0 3.2-3.2 6.4-3.2l32-153.6-156.8 105.6zM371.2 393.6l76.8 92.8c0 0 3.2 0 3.2 0 12.8 0 22.4 9.6 25.6 22.4l112 25.6c6.4-6.4 12.8-9.6 19.2-9.6 3.2 0 3.2 0 6.4 0l57.6-92.8c0-3.2-3.2-6.4-3.2-9.6v0l-121.6-44.8c-3.2 3.2-9.6 3.2-12.8 3.2-9.6 0-16-3.2-22.4-12.8l-140.8 25.6zM176 297.6l147.2 64-70.4-121.6c-3.2 0-6.4 0-9.6-3.2l-64 54.4c-3.2 3.2-3.2 3.2-3.2 6.4 0 0 0 0 0 0zM272 230.4l76.8 128c6.4 0 12.8 6.4 19.2 12.8l140.8-25.6c0-3.2 0-3.2 0-6.4l-32-99.2c-6.4-3.2-12.8-6.4-19.2-12.8h-182.4c0 0-3.2 0-3.2 3.2zM499.2 233.6l28.8 89.6c0 0 3.2 0 3.2 0 6.4 0 9.6 0 12.8 3.2l147.2-102.4h-185.6c0 3.2-3.2 6.4-6.4 9.6z" />
<glyph unicode="&#xe622;" glyph-name="dpc" d="M1008 428.8c0 19.2-16 35.2-35.2 35.2-3.2 0-3.2 0-6.4 0l-64 73.6c0 3.2 3.2 6.4 3.2 9.6 0 19.2-16 35.2-32 35.2l-70.4 118.4c3.2 6.4 6.4 12.8 6.4 19.2 0 19.2-16 35.2-35.2 35.2-9.6 0-19.2-3.2-25.6-9.6l-121.6 48c0 0 0 0 0 0 0 19.2-16 35.2-35.2 35.2s-35.2-16-35.2-35.2c0-3.2 0-3.2 0-3.2l-115.2-64c-6.4 3.2-9.6 6.4-19.2 6.4-16 0-25.6-9.6-32-22.4l-134.4-25.6c-6.4 9.6-16 16-28.8 16-19.2 0-35.2-16-35.2-35.2 0-9.6 6.4-19.2 12.8-25.6l-25.6-70.4c-19.2 0-35.2-16-35.2-35.2 0-3.2 0-3.2 0-6.4l-76.8-48c-3.2 0-9.6 3.2-16 3.2-19.2 0-35.2-16-35.2-35.2 0-12.8 9.6-25.6 19.2-32v-131.2c-12.8-6.4-19.2-16-19.2-32 0-19.2 16-35.2 35.2-35.2 6.4 0 9.6 3.2 16 3.2l80-67.2c0-3.2-3.2-6.4-3.2-6.4 0-19.2 16-35.2 35.2-35.2 12.8 0 25.6 9.6 32 19.2h230.4c6.4-12.8 19.2-19.2 32-19.2s25.6 9.6 32 19.2h252.8c6.4-12.8 16-19.2 32-19.2 19.2 0 35.2 16 35.2 35.2 0 0 0 0 0 0l92.8 44.8c6.4-3.2 12.8-9.6 22.4-9.6 19.2 0 35.2 16 35.2 35.2 0 12.8-6.4 22.4-16 28.8l25.6 147.2c12.8 6.4 22.4 19.2 22.4 35.2zM905.6 220.8l-92.8-48c-3.2 3.2-6.4 3.2-9.6 6.4l-38.4 198.4c6.4 3.2 9.6 6.4 12.8 12.8l172.8 16c3.2-3.2 6.4-6.4 9.6-6.4l-32-147.2c-12.8-6.4-22.4-19.2-22.4-32zM86.4 448c0 3.2 0 3.2 0 6.4l76.8 48c6.4-3.2 9.6-3.2 16-3.2 3.2 0 3.2 0 6.4 0l83.2-118.4c-3.2-3.2-3.2-9.6-3.2-16l-192-83.2c0 0-3.2 0-3.2 3.2v131.2c9.6 6.4 16 19.2 16 32zM262.4 652.8l137.6 25.6c3.2-6.4 9.6-12.8 16-16v-108.8c-9.6-6.4-19.2-16-19.2-28.8 0-6.4 3.2-12.8 6.4-19.2l-92.8-112c-3.2 3.2-9.6 3.2-16 3.2-3.2 0-3.2 0-6.4 0l-83.2 118.4c3.2 3.2 3.2 9.6 3.2 16s-3.2 16-6.4 19.2l28.8 80c16 3.2 25.6 12.8 32 22.4zM464 694.4c0 0 0 3.2 0 3.2l115.2 64c0 0 3.2-3.2 3.2-3.2l35.2-160c-6.4-6.4-12.8-12.8-16-22.4l-140.8-32c-3.2 3.2-6.4 6.4-12.8 9.6v112c9.6 9.6 16 19.2 16 28.8zM777.6 688c0 0 0 0 0 0l67.2-118.4-179.2 16c-3.2 9.6-9.6 16-19.2 19.2l-32 160c0 0 0 0 3.2 3.2l128-51.2c0-16 12.8-28.8 32-28.8zM940.8 435.2l-163.2-12.8c-6.4 12.8-19.2 22.4-32 22.4-3.2 0-6.4 0-9.6-3.2l-70.4 115.2 172.8-16c3.2-16 16-25.6 32-25.6 3.2 0 9.6 0 12.8 3.2l57.6-70.4c0-6.4 0-9.6 0-12.8zM572.8 316.8c0 0 0 3.2 0 3.2s0 3.2 0 3.2l153.6 57.6c3.2 0 3.2-3.2 6.4-3.2l38.4-195.2-198.4 134.4zM336 374.4l96 115.2c0 0 3.2 0 3.2 0 16 0 28.8 12.8 35.2 28.8l140.8 35.2c6.4-6.4 16-12.8 25.6-12.8 3.2 0 3.2 0 6.4 0l70.4-118.4c0-3.2-3.2-9.6-3.2-12.8v0l-156.8-57.6c-6.4 3.2-12.8 6.4-19.2 6.4-12.8 0-22.4-6.4-28.8-16l-169.6 32zM86.4 252.8l185.6 80-89.6-153.6c-6.4 0-9.6 0-12.8-3.2l-80 70.4c-3.2 3.2-3.2 3.2-3.2 6.4 0 0 0 0 0 0zM208 166.4l96 163.2c9.6 0 19.2 6.4 22.4 16l176-32c0-3.2 0-3.2 3.2-6.4l-38.4-128c-9.6-3.2-19.2-9.6-22.4-16h-233.6c0 0-3.2 3.2-3.2 3.2zM496 172.8l35.2 115.2c0 0 3.2 0 3.2 0 6.4 0 12.8 3.2 16 6.4l188.8-128h-236.8c0 0 0 3.2-6.4 6.4z" />
<glyph unicode="&#xe623;" glyph-name="drds-2" d="M515.2-60.8v0c-118.4 0-236.8 9.6-313.6 22.4-128 22.4-156.8 54.4-179.2 179.2-28.8 166.4-28.8 457.6-3.2 620.8 22.4 124.8 54.4 153.6 179.2 176 83.2 12.8 188.8 22.4 304 22.4 118.4 0 236.8-9.6 313.6-22.4 128-22.4 156.8-54.4 179.2-179.2 25.6-166.4 25.6-454.4 0-620.8-22.4-128-54.4-156.8-179.2-179.2-76.8-9.6-182.4-19.2-300.8-19.2zM505.6 931.2c-115.2 0-224-6.4-300.8-22.4-115.2-19.2-134.4-38.4-153.6-156.8-25.6-166.4-25.6-448 0-611.2 19.2-112 38.4-131.2 153.6-153.6 76.8-9.6 188.8-19.2 310.4-19.2v0c115.2 0 224 6.4 300.8 22.4 112 19.2 131.2 38.4 153.6 153.6 25.6 166.4 25.6 448 0 611.2-19.2 112-41.6 131.2-153.6 150.4-80 16-192 25.6-310.4 25.6zM678.4 707.2l-169.6 99.2-169.6-99.2v-188.8l169.6-99.2 169.6 99.2v188.8zM614.4 556.8l-105.6-64-105.6 64v112l105.6 64 105.6-64v-112zM156.8 380.8v-188.8l163.2-99.2 160 99.2v188.8l-160 99.2-163.2-99.2zM422.4 230.4l-102.4-70.4-102.4 67.2v115.2l102.4 67.2 102.4-64v-115.2zM697.6 480l-163.2-99.2v-188.8l163.2-99.2 163.2 99.2v188.8l-163.2 99.2zM800 230.4l-99.2-64-102.4 64v112l102.4 64 99.2-64v-112z" />
<glyph unicode="&#xe624;" glyph-name="drds" d="M729.6 819.2l-217.6 134.4-217.6-134.4v-262.4l217.6-134.4 224 134.4v262.4zM672 595.2l-160-96-160 96v185.6l160 96 160-96v-185.6zM38.4 339.2v-262.4l217.6-134.4 217.6 134.4v262.4l-217.6 134.4-217.6-134.4zM416 300.8v-185.6l-160-96-160 96v185.6l160 96 160-96zM761.6 473.6l-217.6-134.4v-262.4l224-134.4 217.6 134.4v262.4l-224 134.4zM921.6 121.6l-153.6-96-160 89.6v179.2l160 96 153.6-89.6v-179.2z" />
<glyph unicode="&#xe625;" glyph-name="ecs-2" d="M517.568-64.832v0c-119.168 0-234.336 8.192-315.936 22.464-127.936 22.4-158.208 52.448-180.064 178.592-29.088 167.936-28.64 452.864 0.96 622.144 22.336 127.84 52.384 158.144 178.56 180.064 80.064 13.888 189.088 21.568 306.944 21.568 118.912 0 233.856-8.16 315.264-22.432 127.872-22.4 158.144-52.448 180.064-178.592 29.12-167.968 28.736-452.928-0.896-622.272-22.304-127.872-52.384-158.144-178.56-180.096-79.936-13.856-188.736-21.472-306.336-21.472zM508.032 928.48c-116.128 0-223.232-7.52-301.568-21.12-112.864-19.616-132.864-39.808-152.896-154.432-29.12-166.368-29.536-446.336-0.96-611.36 19.552-112.8 39.744-132.832 154.432-152.928 79.904-13.952 193.088-21.952 310.528-21.952v0c115.872 0 222.72 7.456 300.928 20.992 112.896 19.616 132.896 39.84 152.928 154.496 29.12 166.432 29.504 446.432 0.896 611.456-19.616 112.832-39.84 132.864-154.464 152.928-79.712 13.952-192.672 21.952-309.856 21.952zM592.832 338.144c-10.048 0-18.208-7.648-18.208-17.088s8.16-17.12 18.208-17.12c9.984 0 18.176 7.68 18.176 17.12s-8.192 17.088-18.176 17.088zM704.928 574.24c-7.040 0-14.24-0.32-21.664-1.024-1.856 6.944-36.832 138.752-180.16 138.784-10.208 0-20.96-0.704-32.288-2.208-170.208-22.72-149.6-168.576-148.512-176.256-0.16 0.032-3.424 0.256-9.28 0.256-33.248 0-145.408-8.256-165.952-118.176-25.952-139.008 118.464-191.328 171.616-191.328h365.792c6.016 0.032 120.512 0.48 174.816 107.136 51.84 101.728-9.312 242.816-154.368 242.816zM648.864 308.832c0-13.056-14.016-21.024-27.936-21.024h-245.056c-13.888 0-20.768 8-20.768 21.024v26.24c0 13.056 6.88 19.232 20.768 19.232h245.056c13.952 0 27.936-6.176 27.936-19.232v-26.24zM648.864 390.4c0-13.056-14.016-21.024-27.936-21.024h-245.056c-13.888 0-20.768 8-20.768 21.024v26.24c0 13.056 6.88 19.232 20.768 19.232h245.056c13.952 0 27.936-6.176 27.936-19.232v-26.24zM648.864 467.616c0-13.056-14.016-16.576-27.936-16.576h-245.056c-13.888 0-20.768 3.52-20.768 16.576v25.664c0 13.056 6.88 23.712 20.768 23.712h245.056c13.952 0 27.936-10.656 27.936-23.712v-25.664zM592.832 497.28c-10.048 0-18.208-7.136-18.208-16.544s8.16-17.12 18.208-17.12c9.984 0 18.176 7.648 18.176 17.12s-8.192 16.544-18.176 16.544z" />
<glyph unicode="&#xe626;" glyph-name="ecs" d="M932.736-40h-841.728c-50.272 0-91.008 36.096-91.008 86.016v100.064c0 49.856 40.704 85.92 91.008 85.92h841.76c50.272 0 91.040-36.096 91.040-85.92v-100.064c-0.032-49.952-40.768-86.016-91.072-86.016zM832 160c-35.232 0-64-28.576-64-63.968s28.768-64.032 64-64.032c35.264 0 64 28.672 64 64.032s-28.704 63.968-64 63.968zM932.736 304h-841.728c-50.272 0-91.008 36.064-91.008 85.952v100.128c0 49.824 40.704 85.92 91.008 85.92h841.76c50.272 0 91.040-36.064 91.040-85.952v-100.128c-0.032-49.888-40.768-85.952-91.072-85.952zM768 439.968c0-35.232 28.768-63.968 64-63.968 35.264 0 64 28.736 64 63.968 0.032 35.36-28.704 64.032-64 64.032-35.232 0-64-28.64-64-64.032zM932.736 656h-841.728c-50.272 0-91.008 35.136-91.008 83.456v96.96c0 48.448 40.704 83.584 91.008 83.584h841.76c50.272 0 91.040-35.136 91.040-83.584v-96.992c-0.032-48.288-40.768-83.424-91.072-83.424zM832 848c-35.232 0-64-28.672-64-64.032s28.768-63.968 64-63.968c35.264 0 64 28.608 64 63.968s-28.704 64.032-64 64.032z" />
<glyph unicode="&#xe627;" glyph-name="ess-2" d="M981.824 746.176c-21.088 120.48-51.2 150.592-171.68 171.68-78.304 15.072-186.72 21.088-301.184 21.088-111.424 0-216.832-6.016-292.128-21.088-120.48-21.088-150.592-51.2-171.68-171.68-27.104-162.624-30.112-433.696 0-593.312 21.088-120.48 51.2-150.592 171.68-171.68 78.304-15.072 186.72-21.088 301.184-21.088 0 0 0 0 0 0 111.424 0 216.832 6.016 292.128 21.088 120.48 21.088 150.592 51.2 171.68 171.68 27.104 159.616 27.104 433.696 0 593.312zM951.712 155.872c-18.080-108.416-39.168-129.504-147.584-147.584-75.296-12.032-177.696-21.088-289.12-21.088v0c-111.424 0-219.872 9.024-298.176 21.088-108.416 18.080-129.504 39.168-147.584 147.584-27.104 156.608-27.104 424.672 0 584.288 24.096 108.416 42.176 129.504 150.592 147.584 75.296 12.032 177.696 21.088 289.12 21.088s219.872-9.024 295.168-21.088c108.416-18.080 129.504-39.168 147.584-147.584 27.104-156.608 27.104-424.672 0-584.288zM858.368 517.28c-36.128 87.328-87.328 99.392-111.424 99.392-15.072 0-39.168-6.016-63.232-27.104-24.096 24.096-48.192 27.104-63.232 27.104-27.104 0-75.296-12.032-111.424-99.392l-60.224-129.504-57.216 129.504c-36.128 87.328-87.328 99.392-111.424 99.392-27.104 0-75.296-12.032-111.424-99.392-6.016-15.072 0-33.12 15.072-39.168s33.12 0 39.168 15.072c18.080 39.168 39.168 63.232 57.216 63.232s42.176-24.096 57.216-63.232l63.232-147.584c3.008-9.024 9.024-18.080 12.032-24.096-9.024-12.032-21.088-18.080-30.112-18.080-18.080 0-42.176 24.096-57.216 63.232-6.016 15.072-24.096 21.088-39.168 15.072-15.072-3.008-21.088-21.088-15.072-36.128 36.128-87.328 87.328-99.392 111.424-99.392 15.072 0 39.168 6.016 63.232 27.104 24.096-24.096 48.192-27.104 63.232-27.104 27.104 0 75.296 12.032 111.424 99.392l54.208 129.504 54.208-129.504c6.016-15.072 24.096-21.088 39.168-15.072s21.088 24.096 15.072 39.168l-63.232 147.584c-3.008 9.024-9.024 18.080-12.032 24.096 9.024 12.032 21.088 18.080 30.112 18.080 18.080 0 42.176-24.096 57.216-63.232 6.016-15.072 24.096-21.088 39.168-15.072 21.088 3.008 30.112 21.088 24.096 36.128zM569.216 369.696c-18.080-39.168-39.168-63.232-57.216-63.232-9.024 0-18.080 6.016-30.112 18.080 3.008 6.016 9.024 15.072 12.032 24.096l63.232 147.584c18.080 39.168 39.168 63.232 57.216 63.232 9.024 0 18.080-6.016 30.112-18.080-3.008-6.016-9.024-15.072-12.032-24.096l-63.232-147.584z" />
<glyph unicode="&#xe628;" glyph-name="ess" d="M1023.328 564.512c-51.776 129.44-129.44 148.864-168.288 148.864-25.888 0-58.24-6.464-97.088-38.848-6.464-6.464-12.96-12.96-19.424-19.424-38.848 32.352-71.2 38.848-90.624 38.848-38.848 0-110.048-19.424-168.288-148.864l-64.736-161.824-77.664 181.248c-51.776 129.44-129.44 148.864-168.288 148.864s-110.048-19.424-168.288-148.864c-6.464-19.424 6.464-45.312 25.888-51.776s45.312 0 58.24 25.888c25.888 58.24 58.24 97.088 84.16 97.088s58.24-38.848 84.16-97.088l90.624-220.064c6.464-12.96 12.96-25.888 19.424-38.848 0 0 6.464 6.464 6.464 12.96-6.464-12.96-12.96-25.888-25.888-32.352-12.96-12.96-25.888-25.888-45.312-25.888-25.888 0-58.24 38.848-84.16 97.088-6.464 19.424-32.352 32.352-58.24 25.888-19.424-6.464-32.352-32.352-25.888-58.24 51.776-129.44 129.44-148.864 168.288-148.864 25.888 0 58.24 6.464 97.088 38.848 6.464 6.464 12.96 12.96 19.424 19.424 38.848-32.352 71.2-38.848 90.624-38.848 38.848 0 110.048 19.424 168.288 148.864l71.2 161.824 77.664-187.712c6.464-19.424 32.352-32.352 58.24-25.888 19.424 6.464 32.352 32.352 25.888 58.24l-90.624 213.6c-6.464 12.96-12.96 25.888-19.424 38.848 0 0-6.464-6.464-6.464-12.96 6.464 12.96 12.96 25.888 25.888 32.352 12.96 12.96 25.888 25.888 45.312 25.888 25.888 0 58.24-38.848 84.16-97.088 6.464-12.96 32.352-25.888 51.776-12.96 19.424 6.464 32.352 32.352 25.888 51.776zM686.752 564.512l-90.624-213.6c-25.888-58.24-58.24-97.088-84.16-97.088-12.96 0-25.888 6.464-45.312 25.888-12.96-19.424-19.424-32.352-32.352-45.312 6.464 6.464 12.96 12.96 19.424 25.888s12.96 25.888 19.424 38.848l90.624 213.6c25.888 58.24 58.24 97.088 84.16 97.088 12.96 0 25.888-6.464 45.312-25.888 12.96 19.424 19.424 32.352 32.352 45.312-6.464-6.464-12.96-12.96-19.424-25.888s-12.96-25.888-19.424-38.848z" />
<glyph unicode="&#xe629;" glyph-name="exec-snapshot-policy" d="M336.704 472.576l127.808 171.456 99.456-100.736 137.664 206.144 142.528-355.648-421.376 1.088zM408.512 697.344c0-33.728-27.328-61.056-61.056-61.056s-61.056 27.328-61.056 61.056c0 33.728 27.328 61.056 61.056 61.056s61.056-27.328 61.056-61.056zM1024 960h-945.856v-435.84h86.976v351.552h771.904v-571.648h-441.408c36.928-36.928 63.744-63.744 63.808-63.808 9.472-9.536 14.592-22.784 14.144-34.368 0.448-13.632-4.8-26.944-14.336-36.544 0 0-80.256-80.256-155.264-155.264h620.032v945.92zM340.48 304.064l-142.080 142.016v-116.672h-198.4v-248.832h198.4v-116.8l50.304 50.368 190.912 190.848z" />
<glyph unicode="&#xe62a;" glyph-name="goback" d="M512 800l320-320h-640l320 320zM384 416v-224h256v224h-256zM384 192v-96h448v96h-448z" />
<glyph unicode="&#xe62b;" glyph-name="graphs" d="M832 960h-640c-108.8 0-192-83.2-192-192v-640c0-108.8 83.2-192 192-192h640c108.8 0 192 83.2 192 192v640c0 108.8-83.2 192-192 192zM192 832h640c38.4 0 64-25.6 64-64v-57.6l-262.4-371.2-83.2 243.2h-51.2l-128-300.8-115.2 268.8h-57.6l-70.4-128v345.6c0 38.4 25.6 64 64 64zM832 64h-640c-38.4 0-64 25.6-64 64v166.4l96 166.4 115.2-268.8h57.6l128 288 76.8-224h51.2l243.2 345.6v-473.6c0-38.4-25.6-64-64-64z" />
<glyph unicode="&#xe62c;" glyph-name="help-1" d="M506.176 767.648c-77.728 0-136.832-34.432-177.056-90.112-13.632-18.88-24.128-38.88-31.936-58.88-2.752-7.040-4.992-13.664-6.816-19.712-1.152-3.904-1.952-6.944-2.4-8.992l89.472-19.712 0.896 3.232c1.088 3.68 2.528 7.904 4.32 12.512 5.216 13.312 12.192 26.688 21.024 38.912 24 33.216 56.48 52.16 102.432 52.16 48.672 0 77.664-14.272 94.88-38.624 12.32-17.44 18.144-40.096 18.144-58.304 0-27.584-29.504-83.456-57.28-97.888-56.288-29.248-90.688-68.832-100.736-118.976-0.704-3.456-1.344-7.008-1.952-10.624-2.624-15.712-4.32-32.224-5.312-48.672-0.608-9.856 0.032-19.072 0-23.808l91.52-1.12c0 0.672-0.672 4-0.608 6.272 0.128 3.936 0.32 8.384 0.608 13.152 0.832 13.568 2.208 27.104 4.256 39.392 0.448 2.688 0.928 5.28 1.408 7.744 4.16 20.768 20 38.976 53.472 56.384 60.032 31.2 106.304 118.784 106.304 178.112 0 35.36-10.4 75.872-34.688 110.208-34.72 49.12-92.032 77.344-170.048 77.344zM456 216h88v-88h-88v88zM512 960c-282.752 0-512-229.216-512-512s229.216-512 512-512c282.784 0 512 229.216 512 512s-229.216 512-512 512zM512 0c-247.424 0-448 200.576-448 448s200.576 448 448 448c247.424 0 448-200.576 448-448s-200.576-448-448-448z" />
<glyph unicode="&#xe62d;" glyph-name="help-2" d="M512 960c-282.752 0-512-229.216-512-512s229.216-512 512-512c282.784 0 512 229.216 512 512s-229.216 512-512 512zM544 128h-88v88h88v-88zM604.608 402.016c-33.472-17.376-49.312-35.616-53.472-56.384-0.48-2.496-0.96-5.088-1.408-7.744-2.048-12.288-3.456-25.824-4.256-39.392-0.288-4.768-0.48-9.216-0.608-13.152-0.096-2.272 0.608-5.6 0.608-6.272l-91.52 1.12c0.032 4.736-0.608 13.92 0 23.808 0.992 16.448 2.72 32.928 5.312 48.672 0.608 3.616 1.248 7.168 1.952 10.624 10.048 50.144 44.448 89.76 100.736 119.008 27.744 14.432 57.28 70.304 57.28 97.888 0 18.208-5.824 40.864-18.144 58.304-17.216 24.352-46.208 38.624-94.912 38.624-45.984 0-78.432-18.912-102.432-52.16-8.832-12.224-15.808-25.568-21.024-38.912v0c-1.792-4.608-3.232-8.832-4.32-12.512l-0.896-3.232-89.472 19.712c0.448 2.048 1.248 5.088 2.4 8.992 1.792 6.048 4.032 12.672 6.816 19.712 7.84 20 18.304 40 31.936 58.88 40.224 55.68 99.328 90.112 177.056 90.112 78.016 0 135.296-28.192 170.048-77.344 24.288-34.336 34.688-74.848 34.688-110.208 0-59.328-46.24-146.912-106.304-178.112z" />
<glyph unicode="&#xe62e;" glyph-name="help" d="M446.624 32.256h128v128h-128v-128zM348.256 624.96c7.264 17.504 17.024 35.072 29.376 51.136 33.504 43.68 78.848 68.544 143.040 68.544 67.936 0 108.448-18.784 132.48-50.784 17.216-22.912 25.344-52.704 25.344-76.64 0-36.256-41.216-109.728-80-128.672-78.592-38.432-126.624-90.496-140.64-156.416-0.96-4.544-1.888-9.216-2.72-13.984-3.648-20.672-6.048-42.336-7.424-63.968-0.832-12.96-1.184-23.168-1.248-29.408l128-0.96 0.16 5.888c0.16 5.184 0.448 11.008 0.864 17.312 1.152 17.856 3.104 35.616 5.952 51.776 0.64 3.52 1.28 6.912 1.984 10.208 5.792 27.296 27.904 51.264 74.624 74.112 83.808 41.024 148.448 156.16 148.448 234.144 0 46.528-14.528 99.744-48.448 144.896-48.512 64.576-128.48 101.664-237.408 101.664-108.544 0-191.040-45.248-247.2-118.432-19.040-24.832-33.664-51.104-44.576-77.408-3.84-9.28-6.976-17.984-9.504-25.92-1.632-5.12-2.72-9.12-3.36-11.84l124.928-25.92 1.248 4.256c1.504 4.832 3.52 10.4 6.048 16.448z" />
<glyph unicode="&#xe62f;" glyph-name="home" d="M929.024 433.536l-80.16 72.032c-9.76 8.8-17.696 26.752-17.632 39.936l1.376 206.112c0.096 13.152-10.624 23.936-23.776 23.936h-80.384c-13.152 0-23.904-10.752-23.904-23.936l0.224-99.84c0.032-13.152-7.968-16.736-17.76-7.936l-145.44 137.888c-9.76 8.8-25.984 8.992-35.968 0.416l-410.464-350.976c-9.984-8.576-7.424-15.584 5.76-15.584h63.968c13.152 0 32.288 6.784 42.496 15.072l297.856 241.76c10.208 8.288 26.752 8.064 36.704-0.544l277.28-238.752c9.984-8.576 28.896-15.616 42.080-15.616h61.696c13.088 0.032 15.872 7.2 6.048 16.032zM539.648 625.12c-9.984 8.576-26.464 8.832-36.64 0.512l-295.072-240.16c-10.208-8.32-17.248-25.856-17.248-39.040v-213.888c0-13.152 10.752-23.968 23.936-24.064l208.512-0.896c13.152-0.096 23.936 10.656 23.936 23.808v168.544c0 13.152 6.944 23.936 15.456 23.936h93.344c10.528 0 19.168-10.752 19.168-23.936v-167.776c0-13.152 10.752-23.936 23.936-23.936h209.28c13.152 0 23.936 10.752 23.936 23.936v214.304c0 13.152-5.504 30.976-15.456 39.552l-277.088 239.104z" />
<glyph unicode="&#xe630;" glyph-name="info-1" d="M397.952 624.064v0 0zM589.024 624.064h-191.072l-4.384-18.816c10.816-3.52 80.672-5.504 84.608-9.568s5.92-9.6 5.92-16.608c0-2.048-0.224-4.576-0.672-7.648s-1.248-6.784-2.4-11.136l-95.264-391.008c0-0.864-0.16-2.048-0.448-3.52-0.864-4.384-1.312-7.264-1.312-8.736 0-8.448 3.008-15.36 8.992-20.736s13.824-8.096 23.488-8.096h187.552l5.28 18.816c-10.24 0-80.512 0.48-85.92 4.992s-8.128 10.848-8.128 19.008c0 2.048 0.224 4.672 0.64 7.84s1.088 6.848 1.984 10.912l92.64 382.304c1.184 4.064 2.144 8.16 2.848 12.224s1.088 7.712 1.088 10.912c0 9.312-2.176 16.448-6.592 21.408s-10.688 7.424-18.88 7.424zM512 960c-282.752 0-512-229.216-512-512s229.216-512 512-512c282.784 0 512 229.216 512 512s-229.216 512-512 512zM512 0c-247.424 0-448 200.576-448 448s200.576 448 448 448c247.424 0 448-200.576 448-448s-200.576-448-448-448zM632.16 761.44c-4.832 3.68-12.224 5.536-22.176 5.536h-93.504l-14.496-52.352c-0.576-2.272-1.024-4.608-1.312-7.040s-0.448-5.024-0.448-7.872c0-8.512 3.136-14.976 9.44-19.36s15.488-4.832 27.488-4.832h85.472l15.040 57.408c0.864 3.68 1.408 6.304 1.536 7.872s0.224 2.912 0.224 4.032c0 7.392-2.4 12.928-7.232 16.608z" />
<glyph unicode="&#xe631;" glyph-name="info-2" d="M512-64c282.784 0 512 229.216 512 512s-229.216 512-512 512c-282.752 0-512-229.216-512-512s229.216-512 512-512zM397.952 624.064h191.072c8.192 0 14.496-2.464 18.88-7.424s6.592-12.096 6.592-21.408c0-3.2-0.384-6.848-1.088-10.912s-1.664-8.16-2.848-12.224l-92.64-382.272c-0.864-4.096-1.536-7.712-1.984-10.912s-0.64-5.824-0.64-7.872c0-8.16 2.688-14.496 8.128-19.008s75.68-4.992 85.92-4.992l-5.28-18.816h-187.552c-9.664 0-17.472 2.688-23.488 8.096s-8.992 12.288-8.992 20.736c0 1.472 0.448 4.384 1.312 8.736 0.288 1.472 0.448 2.624 0.448 3.488l95.264 391.008c1.184 4.352 1.984 8.064 2.4 11.136s0.672 5.6 0.672 7.648c0 7.008-1.984 12.544-5.92 16.608s-73.792 6.080-84.608 9.568l4.384 18.816zM516.48 766.976h93.504c9.952 0 17.344-1.856 22.176-5.536s7.232-9.216 7.232-16.608c0-1.12-0.064-2.464-0.224-4.032s-0.64-4.192-1.536-7.872l-15.040-57.408h-85.472c-12 0-21.184 0.448-27.456 4.832s-9.44 10.848-9.44 19.36c0 2.848 0.16 5.472 0.448 7.872s0.736 4.768 1.312 7.040l14.496 52.352z" />
<glyph unicode="&#xe632;" glyph-name="info" d="M377.888 678.688h245.504c10.496 0 17.856-3.2 23.488-9.568s8.448-15.552 8.448-27.552c0-4.128-0.48-8.8-1.408-14.080s-2.144-10.496-3.648-15.744l-118.688-500.192c-1.12-5.248-1.952-9.952-2.528-14.048s-0.832-7.488-0.832-10.144c0-10.496 3.456-18.656 10.4-24.48s96.96-8.736 110.112-8.736l-6.752-21.952h-240.32c-12.384 0-22.4 3.456-30.112 10.4s-11.52 15.84-11.52 26.72c0 1.856 0.576 5.632 1.696 11.264 0.384 1.856 0.576 3.36 0.576 4.512l122.080 511.424c1.504 5.632 2.528 10.4 3.104 14.336s0.832 7.232 0.832 9.824c0 8.992-2.528 16.128-7.584 21.376s-94.528 10.112-108.416 14.624l5.632 21.92zM529.76 862.688h119.808c12.736 0 22.208-2.368 28.416-7.136s9.28-11.872 9.28-21.376c0-1.472-0.096-3.2-0.288-5.216s-0.832-5.376-1.952-10.144l-19.264-73.888h-109.504c-15.36 0-27.136 0.576-35.2 6.24s-12.096 13.984-12.096 24.928c0 3.648 0.192 7.040 0.576 10.144s0.928 6.112 1.696 9.024l18.56 67.392z" />
<glyph unicode="&#xe633;" glyph-name="invite" d="M607.303 393.474l379.157 322.379c0 63.653-61.205 64.895-61.205 64.895h-821.54c-61.633 0-60.546-62.876-60.546-62.876l374.575-324.399c104.702-69.556 189.559 0 189.559 0v0zM796.242 483.691l129.712-317.601-191.501 254.649-117.907-99.188c-74.177-64.39-210.686 1.942-210.686 1.942l-118.49 95.693-184.471-237.6 128.393 304.126-190.802 189.482v-486.112c0-57.671 67.148-60.313 67.148-60.313h813.695c65.167 0 67.148 56.351 67.148 56.351v490.074l-192.201-191.579z" />
<glyph unicode="&#xe634;" glyph-name="jiankong-2" d="M633.92 331.488l-22.24-128.064-75.776-16.64-55.904 50.816 33.728 114.4c24.96-0.064 49.28-2.592 72.832-7.424 16.224-3.296 32.032-7.712 47.36-13.088l40.8 234.88-0.64 6.656c25.792-7.104 50.912-15.808 75.2-26.080 36.288-15.328 72.992-37.664 72.992-37.664 16.544-10.048 21.216-31.392 10.368-47.392l-96.352-142.88c-10.816-16.032-33.184-20.96-49.728-10.912 0 0-9.984 6.080-31.744 15.264-6.848 2.88-13.824 5.6-20.896 8.096zM517.568-64.832c-119.2 0-234.336 8.192-315.968 22.464-127.936 22.4-158.208 52.416-180.064 178.592-29.088 167.936-28.64 452.864 0.96 622.144 22.336 127.84 52.416 158.144 178.56 180.064 80.064 13.888 189.088 21.568 306.944 21.568 118.912 0 233.856-8.16 315.264-22.4 127.904-22.368 158.176-52.416 180.064-178.592 29.152-167.968 28.736-452.928-0.864-622.272-22.304-127.904-52.384-158.176-178.56-180.096-79.968-13.856-188.768-21.504-306.336-21.504zM508 928.448c-116.128 0-223.2-7.488-301.568-21.12-112.864-19.584-132.864-39.808-152.896-154.432-29.12-166.4-29.536-446.368-0.96-611.36 19.552-112.8 39.744-132.832 154.464-152.928 79.904-13.952 193.088-21.952 310.528-21.952 115.84 0 222.72 7.424 300.928 20.992 112.896 19.616 132.896 39.84 152.928 154.496 29.12 166.432 29.504 446.432 0.864 611.456-19.616 112.864-39.84 132.864-154.432 152.928-79.712 13.92-192.672 21.92-309.824 21.92zM674.080 573.056l-13.12 137.696-76.192-120.288c17.12-2.016 34.048-4.736 50.656-8.128 13.024-2.688 25.92-5.792 38.656-9.28zM584.768 590.464c-23.456 2.784-47.36 4.192-71.584 4.192-41.888 0-82.784-4.256-122.24-12.32s-77.568-20-113.888-35.36c-36.288-15.328-72.96-37.664-72.96-37.664-16.544-10.048-21.216-31.392-10.4-47.424l96.352-142.88c10.816-16.032 33.184-20.96 49.728-10.912 0 0 9.984 6.080 31.744 15.264s44.608 16.352 68.32 21.216c23.712 4.832 48.256 7.424 73.344 7.424h0.576l69.632 236.256 1.376 2.176z" />
<glyph unicode="&#xe635;" glyph-name="key" d="M256 106.656h42.656v85.344h85.344v85.344h85.344v42.656h85.344v60.672c26.144-11.424 54.944-18.016 85.344-18.016 117.792 0 213.344 95.52 213.344 213.344s-95.52 213.344-213.344 213.344-213.344-95.52-213.344-213.344c0-30.368 6.56-59.168 18.016-85.344h-60.672v-85.344l-213.344-170.656v-128h85.344zM682.656 704c47.104 0 85.344-38.176 85.344-85.344s-38.24-85.344-85.344-85.344c-47.136 0-85.344 38.176-85.344 85.344s38.24 85.344 85.344 85.344z" />
<glyph unicode="&#xe636;" glyph-name="lightcloud-2" d="M518.016-42.912c0 0 0 0 0 0-114.432 0-222.88 9.024-301.184 21.088-123.488 21.088-150.592 51.2-171.68 171.68-27.104 159.616-27.104 433.696 0 593.312 21.088 123.488 51.2 150.592 171.68 171.68 75.296 12.032 180.704 21.088 292.128 21.088 114.432 0 222.88-9.024 301.184-21.088 123.488-21.088 150.592-51.2 171.68-171.68 27.104-159.616 27.104-433.696 0-593.312-21.088-123.488-51.2-150.592-171.68-171.68-78.304-12.032-180.704-21.088-292.128-21.088zM508.992 908.8c-111.424 0-213.824-6.016-289.12-21.088-108.416-18.080-126.496-39.168-147.584-147.584-27.104-159.616-27.104-427.68 0-584.288 18.080-108.416 39.168-126.496 147.584-147.584 75.296-12.032 183.712-21.088 298.176-21.088v0c111.424 0 213.824 6.016 289.12 21.088 108.416 18.080 126.496 39.168 147.584 147.584 27.104 159.616 27.104 427.68 0 584.288-18.080 108.416-39.168 126.496-147.584 147.584-78.304 12.032-186.72 21.088-298.176 21.088zM578.272 737.12c-99.392-57.216-436.704-102.4-358.4-355.392 48.192 165.632 174.688 192.768 174.688 192.768s-21.088-84.32-117.472-216.832c304.192 3.008 331.296 322.272 301.184 379.488zM361.408 544.384c0 0-75.296-126.496-162.624-268.032 48.192 198.784 162.624 268.032 162.624 268.032zM804.128 532.32v75.296c0 12.032-9.024 21.088-21.088 21.088h-144.576c-3.008-36.128-15.072-75.296-33.12-114.432h177.696c12.032-3.008 21.088 6.016 21.088 18.080zM749.92 541.376c-12.032 0-24.096 12.032-24.096 24.096s12.032 24.096 24.096 24.096c12.032 0 24.096-12.032 24.096-24.096 0-15.072-9.024-24.096-24.096-24.096zM786.080 472.096h-201.792c-30.112-45.184-72.288-87.328-135.52-114.432h334.304c12.032 0 21.088 9.024 21.088 21.088v75.296c0 9.024-9.024 18.080-18.080 18.080zM749.92 384.768c-12.032 0-24.096 12.032-24.096 24.096s12.032 24.096 24.096 24.096c12.032 0 24.096-12.032 24.096-24.096s-12.032-24.096-24.096-24.096zM786.080 318.496h-421.632c-12.032 0-21.088-9.024-21.088-21.088v-75.296c0-12.032 9.024-21.088 21.088-21.088h421.632c12.032 0 21.088 9.024 21.088 21.088v75.296c-3.008 12.032-12.032 21.088-21.088 21.088zM749.92 231.168c-12.032 0-24.096 12.032-24.096 24.096s12.032 24.096 24.096 24.096c12.032 0 24.096-12.032 24.096-24.096s-12.032-24.096-24.096-24.096z" />
<glyph unicode="&#xe637;" glyph-name="lightcloud" d="M628.512 920.512c-168.288-97.088-737.888-174.752-608.448-608.448 84.16 284.8 297.76 330.112 297.76 330.112s-38.848-142.4-200.64-368.96c517.824 6.464 563.136 543.712 511.328 647.264zM266.048 590.4c0 0-129.44-213.6-278.336-453.088 77.664 336.576 278.336 453.088 278.336 453.088zM1016.864 570.976v129.44c0 19.424-12.96 32.352-32.352 32.352h-245.952c-6.464-58.24-25.888-129.44-58.24-194.176h304.224c19.424 0 32.352 12.96 32.352 32.352zM926.24 583.936c-19.424 0-38.848 19.424-38.848 38.848s19.424 38.848 38.848 38.848c19.424 0 38.848-19.424 38.848-38.848s-19.424-38.848-38.848-38.848zM984.512 467.424h-343.040c-51.776-77.664-122.976-148.864-226.528-194.176h569.6c19.424 0 32.352 12.96 32.352 32.352v129.44c0 19.424-12.96 32.352-32.352 32.352zM926.24 325.024c-19.424 0-38.848 19.424-38.848 38.848s19.424 38.848 38.848 38.848c19.424 0 38.848-19.424 38.848-38.848s-19.424-38.848-38.848-38.848zM984.512 208.512h-718.464c-19.424 0-32.352-12.96-32.352-32.352v-129.44c0-19.424 12.96-32.352 32.352-32.352h718.464c19.424 0 32.352 12.96 32.352 32.352v129.44c0 12.96-12.96 32.352-32.352 32.352zM926.24 59.648c-19.424 0-38.848 19.424-38.848 38.848s19.424 38.848 38.848 38.848c19.424 0 38.848-19.424 38.848-38.848s-19.424-38.848-38.848-38.848z" />
<glyph unicode="&#xe638;" glyph-name="log" d="M896 537.6v230.4c0 38.4-25.6 64-64 64h-512c-38.4 0-64-25.6-64-64v-640c0-38.4 25.6-64 64-64h102.4c25.6-51.2 64-96 108.8-128h-211.2c-108.8 0-192 83.2-192 192v0h-64c-38.4 0-64 25.6-64 64s25.6 64 64 64h64v128h-64c-38.4 0-64 25.6-64 64s25.6 64 64 64h64v128h-64c-38.4 0-64 25.6-64 64s25.6 64 64 64h64c0 108.8 83.2 192 192 192h512c108.8 0 192-83.2 192-192v-345.6c-32 51.2-76.8 89.6-128 115.2zM320 512h217.6c-25.6-19.2-51.2-38.4-70.4-64h-147.2v64zM320 384h102.4c-12.8-19.2-19.2-44.8-25.6-64h-76.8v64zM320 192v64h70.4c-6.4-12.8-6.4-19.2-6.4-32s0-19.2 6.4-32h-70.4zM320 768h512v-64h-512v64zM832 576h-512v64h512v-64zM448 224c0 160 128 288 288 288s288-128 288-288-128-288-288-288c-160 0-288 128-288 288zM736 64c89.6 0 160 70.4 160 160s-70.4 160-160 160c-89.6 0-160-70.4-160-160s70.4-160 160-160zM736 320c19.2 0 32-12.8 32-32v-32h32c19.2 0 32-12.8 32-32s-12.8-32-32-32h-64c-19.2 0-32 12.8-32 32v64c0 19.2 12.8 32 32 32z" />
<glyph unicode="&#xe639;" glyph-name="logo" d="M578.24 574.912v-143.648l-26.336-25.824-21.76 0.128v24h19.552v145.312h-81.6v24.768h120.928l-8.96-24.768h-1.856zM424.736 413.6l-27.872-13.28v199.68h67.136v-72.96l-13.312-12.256 13.312-11.456v-53.792l-23.52-23.616h-15.712v-12.32zM424.736 576.288v-49.12l11.456-0.096v49.216h-11.456zM424.736 503.36v-53.792h11.456v53.792h-11.456zM518.592 424.16h-43.296v132.128h67.648v-109.216l-24.352-22.944zM501.76 533.44v-86.784h14.656v86.784h-14.688zM789.312 446.592h-65.472v-17.984h79.808l-9.792-22.112h-178.88v22.112h74.816v17.984h-72.736v22.016h72.736v15.296h-72.736v115.904h181.408v-90.176l-32.16-25.728h-42.464v-15.296h76.288l-10.816-22.016zM649.856 577.76v-25.088h39.968v25.088h-39.968zM649.856 531.072v-25.504h39.968v25.504h-39.968zM765.664 577.76h-41.824v-25.088h39.744l-9.248-21.6h-30.496v-25.504h41.824v72.192zM830.048 572.576v26.656h191.296l-12.704-26.656h-178.592zM901.952 505.888l-31.936-73.056h108.768l-14.496 59.936h34.336l22.048-87.904h-35.168l-4.352 18.176-5.408-16.672-144.352 0.096v23.488l34.656 75.904h-36v26.56h190.528l-12.288-26.56h-106.368zM759.008 309.184c-3.072 0-5.664 0.96-7.712 2.912s-3.072 4.352-3.072 7.2c0 2.944 1.024 5.344 3.168 7.2 2.144 1.888 4.768 2.816 7.904 2.816 3.232 0 5.824-0.96 7.84-2.816s3.072-4.288 3.072-7.168c0-2.976-1.056-5.408-3.136-7.296s-4.768-2.848-8.096-2.848zM436.064 318.976h-0.256c-4-7.168-12.672-11.2-20.544-11.2-11.776 0-23.264 6.912-23.264 19.264 0 9.696 4.768 15.36 11.36 18.528s15.136 3.776 22.368 3.776h9.568c0 10.464-4.768 13.984-15.008 13.984-7.328 0-14.72-2.784-20.512-7.072l-0.512 14.496c6.72 3.040 15.744 4.928 23.104 4.928 20.288 0 28.672-8.192 28.672-27.328v-8.288c0-6.56 0.128-11.488 0.256-16.256 0.128-4.928 0.384-9.472 0.768-14.496h-15.232c-0.64 3.392-0.64 7.648-0.768 9.696zM408.544 328.064c0-5.536 4.768-7.936 10.976-7.936 5.312 0 9.408 2.24 12.128 5.792 2.848 3.648 3.616 8.32 3.616 13.344h-7.488c-7.744 0-19.232-1.28-19.232-11.232zM466.304 401.152h17.28v-91.84h-17.28v91.84zM508.16 380.832c-3.136 0-5.76 0.96-7.776 2.88s-3.008 4.288-3.008 7.136c0 2.88 0.992 5.248 3.008 7.072s4.64 2.72 7.776 2.72c3.168 0 5.792-0.896 7.776-2.72s3.008-4.192 3.008-7.072c0-2.944-1.024-5.344-3.008-7.2s-4.608-2.816-7.776-2.816zM499.52 309.312v64.832h17.312v-64.832h-17.312zM542.912 281.344c-4.096 0-8.256 0.64-12.256 1.76l1.184 12.448c2.208-0.736 4.672-1.12 8.928-1.12 6.976 0 11.264 4.64 11.264 11.584l-25.472 68.096h19.136l16-47.36h0.256l16.032 47.36h17.536l-24.928-64.352c-5.568-14.368-9.568-28.448-27.68-28.448zM645.312 318.112h-0.256c-5.312-6.304-12.8-10.336-21.824-10.336-15.744 0-22.592 10.816-22.592 25.44v40.928h17.312v-34.624c0-7.904 0.096-18.624 11.232-18.624 12.544 0 15.264 13.216 15.264 21.504v31.744h17.312v-64.832h-16.416v8.8zM719.968 343.904c0 7.904-0.128 18.624-11.264 18.624-12.512 0-15.2-13.216-15.2-21.536v-31.712h-17.312v64.832h16.384v-8.832h0.256c5.44 7.456 12.8 10.336 21.824 10.336 15.776 0 22.624-10.816 22.624-25.44v-40.896h-17.312v34.624zM828.576 323.904l0.8-13.984c-5.056-1.504-10.208-2.144-17.312-2.144-21.824 0-32.8 14.496-32.8 34.272 0 18.752 11.36 33.6 32.16 33.6 6.976 0 12-0.768 16.8-2.144l-1.536-13.344c-3.104 1.408-6.464 2.4-11.776 2.4-10.688 0-17.568-8.32-17.568-20.512 0-11.968 5.824-21.184 17.952-21.184 4.928 0 10.336 1.76 13.312 3.040zM837.92 341.28c0 21.408 15.104 34.4 34.72 34.4 19.776 0 34.88-12.96 34.88-34.4 0-18.624-12.8-33.504-34.88-33.504-21.952 0-34.72 14.88-34.72 33.504zM855.968 343.296c0-10.688 3.488-22.4 16.672-22.4 13.312 0 16.8 11.584 16.8 22.4 0 9.952-5.44 19.264-16.8 19.264-11.232 0-16.672-9.568-16.672-19.264zM999.168 347.936c0 6.048 0 14.624-9.92 14.624-11.52 0-12.928-13.344-12.928-21.792v-31.456h-17.312v38.624c0 6.048 0 14.624-9.92 14.624-11.52 0-12.928-13.344-12.928-21.792v-31.456h-17.312v64.832h16.16v-9.088c5.696 7.936 13.568 10.592 20.032 10.592 9.312 0 15.904-3.392 19.648-11.456 4 7.808 12.672 11.456 20.8 11.456 16.416 0 21.056-10.944 21.056-25.44v-40.896h-17.312v38.656zM258.4 478.176c-34.784-20.48-48.352-16.864-77.184-4.864-0.928 0.448-3.168 1.28-4.16 1.6-2.304 0.736-4.672 1.152-7.2 1.152-2.432 0-4.736-0.384-6.944-1.088-1.056-0.352-3.424-1.184-4.416-1.664-30.688-12.448-41.536-15.936-77.12 5.088-4.832 2.848-10.368 4.48-16.352 4.48-18.080 0.064-32.768-14.912-32.768-33.44-0.064-18.496 14.592-33.536 32.672-33.568 5.984 0 11.584 1.632 16.416 4.544 33.28 19.648 50.272 17.536 57.056 12.096 2.176-1.76 0-4.384-5.376-11.296-7.872-10.048-26.624-25.056-42.4-40.512-6.24-6.112-10.208-14.656-10.208-24.192-0.032-18.496 14.624-33.568 32.704-33.568 3.648 0 8.448 1.024 12.192 2.048 30.912 8.64 56.928 24.032 73.376 32.256 4.352 2.176 1.888-1.472 6.304-12.416 3.488-8.576 12.8-21.152 26.976-22.208 21.184-1.568 33.856 16.512 28.512 34.944-6.272 21.568-27.456 37.44-50.464 28.128-24.16-9.76-46.016-15.168-69.728-15.232-4.576 0.352-3.68 2.304-3.008 4.704 3.2 10.912 21.024 42.272 42.624 53.184 21.44 10.816 40.384 14.272 78.208-8.192 4.864-2.848 10.432-4.576 16.448-4.576 18.112-0.064 32.768 14.912 32.832 33.44 0 18.496-14.624 33.536-32.736 33.568-5.92 0-11.456-1.6-16.256-4.416zM133.888 513.184c34.848 20.64 37.12 20.64 72-0.128 4.832-2.88 10.4-4.544 16.352-4.576 18.112 0 32.8 14.944 32.832 33.504 0 18.496-14.624 33.504-32.736 33.536-5.952 0.032-11.52-1.6-16.352-4.48-34.976-20.64-36.992-20.64-72.16 0.128-4.8 2.848-10.368 4.48-16.32 4.48-18.080 0.064-32.768-14.912-32.8-33.44s14.624-33.504 32.704-33.568c5.984 0 11.584 1.664 16.416 4.512zM276.544 612.8c-57.856 10.368-156.256 10.528-213.696 0.288-41.664-7.424-50.208-16.96-57.44-59.296-10.112-59.168-10.304-159.872-0.32-218.656 7.232-42.656 16.544-51.36 57.952-58.784 57.856-10.336 156.256-10.528 213.728-0.32 41.664 7.424 50.208 16.928 57.44 59.296 10.112 59.2 10.272 159.904 0.288 218.688-7.232 42.624-16.576 51.36-57.952 58.784zM65.568 295.936c-35.776 6.432-39.616 10.304-45.728 46.24-9.6 56.608-9.44 156.32 0.32 213.376 6.272 36.576 10.048 40.512 45.184 46.784 26.24 4.672 63.712 7.328 102.848 7.328 40.096 0 78.624-2.784 105.76-7.648 35.776-6.4 39.616-10.304 45.728-46.24 9.6-56.608 9.472-156.32-0.288-213.408-6.24-36.576-10.048-40.512-45.216-46.784-26.208-4.64-63.648-7.328-102.752-7.328-40.16 0-78.752 2.784-105.888 7.648z" />
<glyph unicode="&#xe63a;" glyph-name="logo1" d="M775.68 545.664c-103.52-59.584-143.904-49.056-229.728-14.176-2.72 1.28-9.376 3.744-12.352 4.672-6.816 2.112-13.92 3.392-21.44 3.392-7.2 0-14.080-1.12-20.64-3.136-3.168-0.96-10.208-3.424-13.152-4.864-91.328-36.192-123.552-46.304-229.44 14.848-14.304 8.288-30.88 12.992-48.64 12.992-53.76 0.16-97.472-43.392-97.504-97.248-0.16-53.792 43.392-97.536 97.216-97.632 17.792 0 34.496 4.768 48.864 13.152 98.976 57.152 149.632 51.072 169.792 35.2 6.464-5.12 0.032-12.736-16.064-32.832-23.424-29.216-79.2-72.896-126.208-117.824-18.56-17.728-30.368-42.624-30.368-70.336-0.096-53.856 43.52-97.6 97.312-97.664 10.88 0 25.088 2.944 36.256 6.016 92 25.152 169.408 69.856 218.304 93.76 12.96 6.336 5.632-4.256 18.784-36.096 10.336-24.928 38.112-61.504 80.288-64.576 63.008-4.544 100.768 48 84.864 101.632-18.656 62.784-81.664 108.864-150.176 81.824-71.872-28.352-136.896-44.16-207.552-44.32-13.6 0.96-11.008 6.688-8.928 13.664 9.568 31.776 62.528 122.944 126.88 154.624 63.744 31.456 120.16 41.504 232.736-23.84 14.432-8.32 31.072-13.344 48.928-13.344 53.856-0.16 97.536 43.424 97.696 97.28 0.032 53.792-43.52 97.504-97.408 97.568-17.632 0.064-34.176-4.576-48.384-12.8zM405.216 647.456c103.744 59.968 110.432 60.032 214.304-0.352 14.336-8.384 30.912-13.184 48.704-13.28 53.856 0 97.568 43.488 97.696 97.44 0.064 53.76-43.52 97.472-97.376 97.536-17.728 0.096-34.304-4.704-48.608-12.992-104.096-60-110.048-60-214.688 0.352-14.304 8.32-30.88 13.056-48.576 13.056-53.824 0.16-97.568-43.392-97.6-97.28-0.064-53.792 43.52-97.472 97.344-97.568 17.76 0 34.4 4.8 48.832 13.088zM829.696 937.12c-172.16 30.144-464.96 30.592-635.936 0.864-123.968-21.568-149.376-49.344-170.88-172.416-30.112-172.096-30.624-464.896-0.96-635.904 21.504-124.064 49.248-149.408 172.416-170.976 172.128-30.112 464.992-30.592 636-0.928 124.032 21.504 149.44 49.216 170.944 172.448 30.112 172.16 30.592 464.992 0.864 636-21.568 123.968-49.312 149.344-172.448 170.88zM201.952 15.648c-106.432 18.624-117.888 29.952-136 134.464-28.544 164.64-28.096 454.592 0.96 620.544 18.624 106.4 29.92 117.824 134.464 136 78.080 13.568 189.632 21.344 306.080 21.344 119.296 0 233.984-8.096 314.688-22.208 106.432-18.624 117.856-29.92 136.096-134.464 28.576-164.608 28.192-454.624-0.864-620.576-18.592-106.432-29.92-117.856-134.528-136-77.984-13.536-189.44-21.312-305.76-21.312-119.456 0.032-234.304 8.096-315.072 22.24z" />
<glyph unicode="&#xe63b;" glyph-name="logo2" d="M829.568 937.12c-172.128 30.112-464.896 30.592-635.808 0.864-123.968-21.536-149.344-49.344-170.848-172.384-30.112-172.064-30.592-464.832-0.96-635.808 21.504-124.032 49.248-149.376 172.384-170.912 172.128-30.080 464.928-30.592 635.904-0.928 124 21.504 149.408 49.216 170.912 172.384 30.112 172.128 30.56 464.896 0.864 635.904-21.568 123.968-49.312 149.344-172.416 170.88zM402.016 813.44c107.712-62.176 113.824-62.208 220.992-0.416 14.752 8.512 31.808 13.44 50.048 13.408 55.424-0.096 100.288-45.088 100.192-100.416-0.128-55.52-45.12-100.32-100.544-100.256-18.304 0.032-35.392 4.992-50.112 13.6-106.88 62.176-113.824 62.048-220.64 0.384-14.784-8.544-31.936-13.44-50.24-13.408-55.424 0.064-100.256 45.056-100.16 100.448 0.032 55.424 45.056 100.224 100.448 100.096 18.24-0.064 35.296-4.928 49.984-13.408zM782.464 361.344c-115.904 67.264-173.952 56.896-239.552 24.544-66.272-32.64-120.736-126.496-130.592-159.136-2.176-7.232-4.832-13.088 9.184-14.144 72.704 0.128 139.616 16.448 213.6 45.632 70.528 27.808 135.36-19.584 154.592-84.192 16.384-55.168-22.496-109.312-87.328-104.608-43.456 3.168-72 40.736-82.624 66.432-13.568 32.768-6.048 43.616-19.36 37.12-50.336-24.544-130.048-70.624-224.672-96.48-11.552-3.136-26.144-6.24-37.376-6.208-55.392 0.096-100.256 45.056-100.16 100.48 0.064 28.544 12.16 54.176 31.296 72.448 48.352 46.272 105.792 91.2 129.888 121.312 16.576 20.672 23.136 28.512 16.576 33.76-20.8 16.384-72.96 22.624-174.816-36.224-14.816-8.544-31.936-13.536-50.304-13.504-55.392 0.096-100.192 45.12-100.064 100.512 0.032 55.392 45.056 100.192 100.416 100.096 18.24 0 35.328-4.928 50.048-13.44 108.928-62.912 142.144-52.512 236.128-15.264 3.072 1.472 10.272 4.032 13.6 5.024 6.72 2.080 13.792 3.168 21.216 3.168 7.712 0 15.072-1.28 22.112-3.52 3.040-0.96 9.888-3.392 12.736-4.768 88.352-35.904 129.888-46.72 236.448 14.592 14.656 8.448 31.648 13.28 49.792 13.216 55.424-0.128 100.288-45.056 100.192-100.448s-45.056-100.224-100.48-100.096c-18.4 0.032-35.52 5.12-50.368 13.76z" />
<glyph unicode="&#xe63c;" glyph-name="menu" d="M128 661.152h171.232v170.848h-171.232v-170.848zM128 363.392h171.232v169.184h-171.232v-169.184zM128 64h171.232v168.928h-171.232v-168.928zM426.368 661.152h171.232v170.848h-171.232v-170.848zM426.368 363.392h171.232v169.184h-171.232v-169.184zM426.368 64h171.232v168.928h-171.232v-168.928zM724.768 832v-170.848h171.232v170.848h-171.232zM724.768 363.392h171.232v169.184h-171.232v-169.184zM724.768 64h171.232v168.928h-171.232v-168.928z" />
<glyph unicode="&#xe63d;" glyph-name="mqs-2" d="M518.016-42.912c0 0 0 0 0 0-114.432 0-222.88 9.024-301.184 21.088-123.488 21.088-150.592 51.2-171.68 171.68-27.104 159.616-27.104 433.696 0 593.312 21.088 123.488 51.2 150.592 171.68 171.68 75.296 12.032 180.704 21.088 292.128 21.088 114.432 0 222.88-9.024 301.184-21.088 123.488-21.088 150.592-51.2 171.68-171.68 27.104-159.616 27.104-433.696 0-593.312-21.088-123.488-51.2-150.592-171.68-171.68-78.304-12.032-180.704-21.088-292.128-21.088zM508.992 908.8c-111.424 0-213.824-6.016-289.12-21.088-108.416-18.080-126.496-39.168-147.584-147.584-27.104-159.616-27.104-427.68 0-584.288 18.080-108.416 39.168-126.496 147.584-147.584 75.296-12.032 183.712-21.088 298.176-21.088v0c111.424 0 213.824 6.016 289.12 21.088 108.416 18.080 126.496 39.168 147.584 147.584 27.104 159.616 27.104 427.68 0 584.288-18.080 108.416-39.168 126.496-147.584 147.584-78.304 12.032-186.72 21.088-298.176 21.088zM731.872 481.12c-18.080 0-39.168-15.072-39.168-30.112v-156.608h-400.576c-18.080 0-30.112-30.112-30.112-48.192v-90.368l63.232 63.232h418.624c18.080 0 30.112 30.112 30.112 48.192v183.712c-3.008 15.072-24.096 30.112-42.176 30.112zM385.504 448c0-18.080 15.072-30.112 30.112-30.112 18.080 0 30.112 15.072 30.112 30.112s-15.072 30.112-30.112 30.112c-15.072 0-30.112-12.032-30.112-30.112zM566.208 448c0-18.080 15.072-30.112 30.112-30.112 18.080 0 30.112 15.072 30.112 30.112s-15.072 30.112-30.112 30.112c-15.072 0-30.112-12.032-30.112-30.112zM475.872 448c0-18.080 15.072-30.112 30.112-30.112 18.080 0 30.112 15.072 30.112 30.112s-15.072 30.112-30.112 30.112c-15.072 0-30.112-12.032-30.112-30.112zM292.128 417.888c18.080 0 39.168 15.072 39.168 30.112v153.6h409.6c18.080 0 30.112 21.088 30.112 39.168s-15.072 39.168-30.112 39.168h-448.768c-18.080 0-39.168-15.072-39.168-30.112v-201.792c0-15.072 21.088-30.112 39.168-30.112z" />
<glyph unicode="&#xe63e;" glyph-name="mqs" d="M910.208 561.792c-34.144 0-56.896-22.752-56.896-56.896v-284.448h-739.552c-34.144 0-56.896-22.752-56.896-56.896v-170.656l113.792 113.792h739.552c34.144 0 56.896 22.752 56.896 56.896v341.344c0 34.144-22.752 56.896-56.896 56.896zM290.144 504.896c0-34.144 22.752-56.896 56.896-56.896s56.896 22.752 56.896 56.896c0 34.144-22.752 56.896-56.896 56.896s-56.896-22.752-56.896-56.896zM620.096 504.896c0-34.144 22.752-56.896 56.896-56.896s56.896 22.752 56.896 56.896c0 34.144-22.752 56.896-56.896 56.896s-56.896-22.752-56.896-56.896zM455.104 504.896c0-34.144 22.752-56.896 56.896-56.896s56.896 22.752 56.896 56.896c0 34.144-22.752 56.896-56.896 56.896s-56.896-22.752-56.896-56.896zM113.792 448c34.144 0 56.896 22.752 56.896 56.896v284.448h739.552c34.144 0 56.896 22.752 56.896 56.896s-22.752 56.896-56.896 56.896h-796.448c-34.144 0-56.896-22.752-56.896-56.896v-341.344c0-34.144 22.752-56.896 56.896-56.896z" />
<glyph unicode="&#xe63f;" glyph-name="mts" d="M884.736 583.072c-19.36 48.96-47.296 92.992-83.136 130.752-46.176 48.64-104.032 84.896-167.328 105.376l90.016 63.072c16.48 6.656 24.48 25.504 17.92 42.176-6.656 16.704-25.28 24.768-41.792 18.112l-197.632-106.496c-14.24-5.728-22.528-20.896-19.648-36.16s15.968-26.304 31.328-26.432c90.112-0.512 178.368-38.816 240.736-104.544 30.112-31.84 53.664-68.8 69.952-109.984s24.384-84.384 24.16-128.416c-0.192-45.568-9.408-90.112-27.328-132.288s-43.52-79.552-76.096-111.104c-31.424-30.528-68-54.272-108.736-70.656-16.48-6.656-24.48-25.504-17.92-42.176 3.264-8.288 9.632-14.528 17.088-17.824 7.584-3.264 16.288-3.68 24.576-0.32 48.448 19.552 91.968 47.808 129.344 84.064 38.816 37.568 69.312 82.112 90.624 132.416s32.256 103.232 32.576 157.6c0.32 52.416-9.312 103.84-28.672 152.768zM505.44 91.232c-90.208 0.512-178.272 38.72-240.736 104.544-30.112 31.84-53.664 68.8-69.952 109.888-16.192 41.152-24.384 84.384-24.16 128.416 0.192 45.568 9.408 90.112 27.328 132.288s43.52 79.552 76.096 111.104c31.424 30.528 68 54.272 108.736 70.656 16.48 6.656 24.48 25.504 17.92 42.176s-25.184 24.768-41.664 18.112c-48.448-19.552-91.968-47.808-129.344-84.16-38.816-37.568-69.312-82.112-90.624-132.288s-32.256-103.232-32.576-157.6c-0.32-52.416 9.408-103.84 28.672-152.768 19.36-48.96 47.296-92.992 83.264-130.752 46.176-48.736 104.032-84.896 167.328-105.376l-76.288-30.816c-16.48-6.656-24.48-25.504-17.92-42.176 3.264-8.288 9.632-14.528 17.088-17.824 7.584-3.264 16.384-3.68 24.576-0.32l183.904 74.336c14.24 5.728 22.528 20.896 19.648 36.16s-16.064 26.432-31.328 26.432zM365.664 551.232v-231.232c0-26.208 13.824-50.496 36.352-63.584 11.264-6.56 23.744-9.824 36.352-9.824s25.088 3.264 36.352 9.824l198.048 115.616c22.528 13.12 36.352 37.376 36.352 63.584s-13.824 50.496-36.352 63.584l-198.144 115.616c-22.528 13.12-50.176 13.12-72.704 0-22.432-13.12-36.256-37.376-36.256-63.584z" />
<glyph unicode="&#xe640;" glyph-name="narrow" d="M460.8 448h-192c-25.6 0-51.2-12.8-57.6-38.4-12.8-25.6-6.4-51.2 12.8-70.4l51.2-51.2-179.2-179.2c-25.6-25.6-25.6-64 0-89.6s64-25.6 89.6 0l179.2 179.2 51.2-51.2c12.8-12.8 32-19.2 44.8-19.2 6.4 0 19.2 0 25.6 6.4 25.6 6.4 38.4 32 38.4 57.6v192c0 38.4-25.6 64-64 64zM953.6 876.8c-25.6 25.6-64 25.6-89.6 0l-179.2-179.2-51.2 51.2c-12.8 12.8-25.6 19.2-44.8 19.2-6.4 0-12.8 0-25.6-6.4-19.2-6.4-38.4-32-38.4-57.6v-192c0-38.4 25.6-64 64-64h192c25.6 0 51.2 12.8 57.6 38.4 12.8 25.6 6.4 51.2-12.8 70.4l-51.2 51.2 179.2 179.2c25.6 25.6 25.6 64 0 89.6z" />
<glyph unicode="&#xe641;" glyph-name="no-1" d="M688.352 708.224l-192.352-192.352-192.352 192.352-67.872-67.872 192.352-192.352-192.352-192.352 67.872-67.872 192.352 192.352 192.352-192.352 67.872 67.872-192.352 192.352 192.352 192.352zM496 960c-282.752 0-512-229.216-512-512s229.216-512 512-512c282.784 0 512 229.216 512 512s-229.216 512-512 512zM496 0c-247.424 0-448 200.576-448 448s200.576 448 448 448c247.424 0 448-200.576 448-448s-200.576-448-448-448z" />
<glyph unicode="&#xe642;" glyph-name="no-2" d="M512-64c282.784 0 512 229.216 512 512s-229.216 512-512 512c-282.752 0-512-229.216-512-512s229.216-512 512-512zM704.352 708.224l67.872-67.872-192.352-192.352 192.352-192.352-67.872-67.872-192.352 192.352-192.352-192.352-67.872 67.872 192.352 192.352-192.352 192.352 67.872 67.872 192.352-192.352 192.352 192.352z" />
<glyph unicode="&#xe643;" glyph-name="no" d="M416.8 464l-277.152 277.152 79.168 79.168 277.152-277.152 277.152 277.152 79.168-79.168-277.152-277.152 277.152-277.152-79.168-79.168-277.152 277.152-277.152-277.152-79.168 79.168 277.152 277.152z" />
<glyph unicode="&#xe644;" glyph-name="oas-2" d="M517.024-59.424c-0.032 0 0 0 0 0-118.016 0-232.064 8.096-312.864 22.24-126.656 22.176-156.672 51.904-178.304 176.832-28.8 166.304-28.352 448.448 0.96 616.064 22.112 126.624 51.872 156.608 176.8 178.304 79.264 13.76 187.232 21.376 303.936 21.376 117.76 0 231.552-8.096 312.192-22.176 126.624-22.144 156.64-51.904 178.304-176.832 28.864-166.336 28.448-448.512-0.864-616.192-22.080-126.624-51.84-156.64-176.8-178.336-79.2-13.728-186.912-21.28-303.36-21.28zM507.584 924.192c-115.008 0-221.024-7.424-298.624-20.896-111.744-19.392-131.584-39.424-151.424-152.928-28.832-164.768-29.28-442.016-0.96-605.408 19.36-111.712 39.36-131.552 152.928-151.456 79.136-13.824 191.2-21.76 307.488-21.76v0c114.72 0 220.544 7.36 297.984 20.768 111.776 19.424 131.616 39.456 151.456 152.96 28.832 164.8 29.248 442.080 0.864 605.504-19.424 111.744-39.456 131.584-152.928 151.456-78.944 13.792-190.784 21.728-306.784 21.728zM575.904 501.408c-0.64 1.088-1.376 2.112-2.304 3.040-2.816 2.816-6.528 4.256-10.24 4.256v0h-116.48c-3.712 0-7.424-1.408-10.24-4.256-4.736-4.736-5.504-11.872-2.336-17.408 0.64-1.088 1.408-2.144 2.336-3.104 2.816-2.816 6.528-4.256 10.24-4.256h116.48c3.712 0 7.424 1.408 10.24 4.256 2.336 2.336 3.68 5.28 4.096 8.32 0.032 0.288 0.064 0.544 0.096 0.832 0.224 2.848-0.416 5.76-1.888 8.32zM575.904 455.808c-0.64 1.088-1.376 2.112-2.304 3.040-2.816 2.816-6.528 4.256-10.24 4.256v0h-116.48c-3.712 0-7.424-1.408-10.24-4.256-4.736-4.736-5.504-11.872-2.336-17.408 0.64-1.12 1.408-2.144 2.336-3.104 2.816-2.816 6.528-4.256 10.24-4.256h116.48c3.712 0 7.424 1.408 10.24 4.256 2.336 2.336 3.68 5.28 4.096 8.32 0.032 0.288 0.064 0.544 0.096 0.832 0.224 2.848-0.416 5.76-1.888 8.32zM575.904 410.208c-0.64 1.088-1.376 2.112-2.304 3.040-2.816 2.816-6.528 4.256-10.24 4.256v0h-116.48c-3.712 0-7.424-1.408-10.24-4.256-4.736-4.736-5.504-11.872-2.336-17.408 0.64-1.12 1.408-2.144 2.336-3.104 2.816-2.816 6.528-4.256 10.24-4.256h116.48c3.712 0 7.424 1.408 10.24 4.256 2.336 2.336 3.68 5.28 4.096 8.32 0.032 0.288 0.064 0.544 0.096 0.832 0.224 2.848-0.416 5.76-1.888 8.32zM258.528 370.656c43.328-139.008 191.68-216.864 330.72-173.536 64.832 20.192 116.192 63.2 148.352 117.472 3.552 6.88 4.896 14.784 3.84 22.784-0.288 2.144-0.704 4.288-1.376 6.432-0.128 0.416-0.288 0.8-0.448 1.216-2.752 7.872-7.776 14.304-14.144 18.816-0.608 0.416-1.216 0.832-1.856 1.248-6.496 4.064-14.112 6.176-21.984 5.856-3.328-0.128-6.72-0.64-10.080-1.696-8.608-2.688-15.584-8.128-20.352-15.008-0.64-1.056-1.312-2.080-1.952-3.136-22.816-36.928-58.464-66.176-103.072-80.064-98.272-30.624-203.136 24.384-233.76 122.656zM329.632 400.256c-0.352 0.64-0.736 1.28-1.088 1.952-4 6.528-9.888 11.808-17.088 15.040-3.040 1.376-6.304 2.4-9.76 2.976-21.12 3.392-40.96-10.976-44.352-32.064-2.816-17.6 6.72-34.272 22.176-41.312 3.104-1.408 6.4-2.464 9.888-3.040 21.12-3.392 40.96 10.976 44.352 32.064 1.408 8.704-0.256 17.184-4.128 24.416zM683.616 366.176c-2.88-1.696-5.6-3.744-8.064-6.24-7.488-7.616-11.168-17.568-11.072-27.456v0l0.992-109.472c0.096-9.888 3.968-19.776 11.584-27.264 12.704-12.48 31.84-14.368 46.528-5.824 2.944 1.696 5.696 3.776 8.192 6.336 7.488 7.616 11.168 17.568 11.072 27.488l-0.992 109.472c-0.096 9.92-3.968 19.776-11.584 27.264-6.304 6.176-14.176 9.728-22.304 10.752-0.736 0.064-1.472 0.16-2.208 0.224-7.616 0.512-15.36-1.248-22.144-5.216zM763.52 527.488c-43.328 139.008-191.68 216.864-330.72 173.536-64.832-20.224-116.192-63.2-148.352-117.472-3.552-6.88-4.896-14.784-3.84-22.784 0.288-2.144 0.704-4.288 1.376-6.432 0.128-0.416 0.288-0.8 0.448-1.216 2.752-7.872 7.776-14.304 14.144-18.816 0.608-0.416 1.248-0.832 1.856-1.248 6.496-4.064 14.112-6.176 21.984-5.856 3.328 0.128 6.72 0.64 10.080 1.696 8.608 2.688 15.584 8.128 20.352 15.008 0.64 1.056 1.312 2.080 1.952 3.136 22.816 36.928 58.464 66.176 103.072 80.064 98.272 30.624 203.136-24.384 233.76-122.656zM692.448 497.856c0.384-0.64 0.736-1.28 1.088-1.92 4-6.528 9.888-11.808 17.088-15.040 3.040-1.376 6.304-2.4 9.76-2.976 21.12-3.392 40.96 10.976 44.352 32.064 2.816 17.6-6.688 34.272-22.176 41.312-3.072 1.408-6.4 2.464-9.888 3.040-21.12 3.392-40.96-10.976-44.352-32.064-1.408-8.704 0.256-17.184 4.128-24.416zM338.432 531.968c2.88 1.696 5.6 3.744 8.064 6.24 7.488 7.616 11.168 17.568 11.072 27.456v0l-0.992 109.472c-0.096 9.888-3.968 19.776-11.584 27.264-12.704 12.48-31.84 14.368-46.528 5.824-2.944-1.696-5.696-3.776-8.192-6.336-7.488-7.616-11.168-17.568-11.072-27.488l0.992-109.472c0.096-9.92 3.968-19.776 11.584-27.264 6.304-6.176 14.176-9.728 22.304-10.752 0.736-0.064 1.472-0.16 2.208-0.224 7.616-0.512 15.36 1.248 22.144 5.216z" />
</font>
</defs>
</svg>
